<svg width="267" height="42" viewBox="0 0 267 42" fill="none" xmlns="http://www.w3.org/2000/svg">
<path d="M1.03238 14.5315L19.6004 25.2437C19.9141 25.4245 20.2698 25.5197 20.632 25.5197C20.9941 25.5197 21.3499 25.4245 21.6635 25.2437L40.2316 14.5315C40.5434 14.3517 40.8027 14.0936 40.9837 13.7828C41.1646 13.472 41.261 13.1193 41.2632 12.7598C41.2646 12.3968 41.17 12.0399 40.9888 11.7252C40.8077 11.4104 40.5464 11.1491 40.2316 10.9676L21.6635 0.275993C21.3499 0.0951869 20.9941 0 20.632 0C20.2698 0 19.9141 0.0951869 19.6004 0.275993L1.03238 10.9676C0.717536 11.1491 0.456317 11.4104 0.275168 11.7252C0.0940196 12.0399 -0.000624824 12.3968 0.000818465 12.7598C0.00299169 13.1193 0.0993507 13.472 0.280319 13.7828C0.461286 14.0936 0.720562 14.3517 1.03238 14.5315ZM38.1685 19.2902L20.632 29.2402L3.09549 19.2078C2.86002 19.0716 2.59989 18.9832 2.33008 18.9478C2.06027 18.9124 1.78611 18.9307 1.52339 19.0015C1.26067 19.0724 1.01459 19.1944 0.799308 19.3606C0.584028 19.5268 0.403807 19.7339 0.269024 19.97C5.0194e-05 20.443 -0.0706451 21.003 0.0723637 21.5279C0.215373 22.0528 0.560477 22.4999 1.03238 22.7716L19.6004 33.4838C19.9141 33.6646 20.2698 33.7598 20.632 33.7598C20.9941 33.7598 21.3499 33.6646 21.6635 33.4838L40.2316 22.7716C40.7035 22.4999 41.0486 22.0528 41.1916 21.5279C41.3346 21.003 41.2639 20.443 40.995 19.97C40.8602 19.7339 40.6799 19.5268 40.4647 19.3606C40.2494 19.1944 40.0033 19.0724 39.7406 19.0015C39.4779 18.9307 39.2037 18.9124 38.9339 18.9478C38.6641 18.9832 38.404 19.0716 38.1685 19.2078V19.2902ZM38.1685 27.5303L20.632 37.4803L3.09549 27.4479C2.86002 27.3117 2.59989 27.2234 2.33008 27.188C2.06027 27.1526 1.78611 27.1708 1.52339 27.2417C1.26067 27.3125 1.01459 27.4346 0.799308 27.6008C0.584028 27.767 0.403807 27.9741 0.269024 28.2101C5.0194e-05 28.6832 -0.0706451 29.2432 0.0723637 29.7681C0.215373 30.2929 0.560477 30.74 1.03238 31.0118L19.6004 41.724C19.9141 41.9048 20.2698 42 20.632 42C20.9941 42 21.3499 41.9048 21.6635 41.724L40.2316 31.0118C40.7035 30.74 41.0486 30.2929 41.1916 29.7681C41.3346 29.2432 41.2639 28.6832 40.995 28.2101C40.8602 27.9741 40.6799 27.767 40.4647 27.6008C40.2494 27.4346 40.0033 27.3125 39.7406 27.2417C39.4779 27.1708 39.2037 27.1526 38.9339 27.188C38.6641 27.2234 38.404 27.3117 38.1685 27.4479V27.5303Z" fill="white"/>
<path d="M73.8274 34.0873V14.5415H80.6539V9.49747H60.7376V14.5415H67.5641V34.0873H73.8274Z" fill="white"/>
<path d="M82.1898 34.0873H88.2313V24.0673C88.2313 21.409 89.6649 19.9435 92.2589 19.9435C92.9416 19.9435 93.6925 20.0628 94.2045 20.2843V15.1039C93.7949 14.9676 93.2317 14.8653 92.6685 14.8653C90.4158 14.8653 88.8627 16.1604 88.1801 18.6824H88.0606V15.1209H82.1898V34.0873Z" fill="white"/>
<path d="M103.506 30.1509C101.953 30.1509 100.946 29.4011 100.946 28.1912C100.946 27.0324 101.884 26.2997 103.608 26.1804L107.107 25.9418V27.254C107.107 28.9921 105.451 30.1509 103.506 30.1509ZM101.372 34.3429C103.676 34.3429 105.997 33.2694 107.021 31.3608H107.141V34.0873H113.011V21.1022C113.011 17.2851 109.649 14.7119 104.581 14.7119C99.4438 14.7119 96.0817 17.251 95.9282 21.0852H101.372C101.543 19.9094 102.652 19.0403 104.291 19.0403C105.997 19.0403 107.107 19.8753 107.107 21.426V22.5166L102.652 22.7893C97.686 23.096 94.9554 25.0557 94.9554 28.6002C94.9554 32.0083 97.8054 34.3429 101.372 34.3429Z" fill="white"/>
<path d="M117.568 34.0873H123.61V19.5856H126.937V15.1209H123.456V13.9281C123.456 12.8204 124.07 12.3262 125.538 12.3262C126.152 12.3262 126.562 12.3774 126.92 12.4455V8.45799C126.152 8.35574 125.248 8.27054 124.258 8.27054C119.411 8.27054 117.568 9.75308 117.568 13.468V15.1209H115.025V19.5856H117.568V34.0873Z" fill="white"/>
<path d="M141.614 34.3429C146.376 34.3429 149.158 30.7473 149.158 24.5956C149.158 18.4439 146.359 14.8653 141.563 14.8653C138.85 14.8653 136.785 16.1945 135.812 18.4439H135.675V8.27054H129.634V34.0873H135.641V30.8325H135.761C136.734 33.0308 138.833 34.3429 141.614 34.3429ZM139.328 19.6197C141.529 19.6197 142.98 21.5794 142.98 24.5956C142.98 27.6459 141.546 29.5885 139.328 29.5885C137.092 29.5885 135.658 27.6459 135.658 24.6126C135.658 21.5964 137.109 19.6197 139.328 19.6197Z" fill="white"/>
<path d="M159.415 30.1509C157.861 30.1509 156.855 29.4011 156.855 28.1912C156.855 27.0324 157.793 26.2997 159.517 26.1804L163.015 25.9418V27.254C163.015 28.9921 161.36 30.1509 159.415 30.1509ZM157.281 34.3429C159.585 34.3429 161.906 33.2694 162.93 31.3608H163.05V34.0873H168.92V21.1022C168.92 17.2851 165.558 14.7119 160.49 14.7119C155.353 14.7119 151.991 17.251 151.837 21.0852H157.281C157.452 19.9094 158.561 19.0403 160.2 19.0403C161.906 19.0403 163.015 19.8753 163.015 21.426V22.5166L158.561 22.7893C153.595 23.096 150.864 25.0557 150.864 28.6002C150.864 32.0083 153.714 34.3429 157.281 34.3429Z" fill="white"/>
<path d="M171.958 34.0873H178V23.3857C178 21.2386 179.399 19.7219 181.447 19.7219C183.529 19.7219 184.724 21.0341 184.724 23.2323V34.0873H190.782V21.9372C190.782 17.4555 188.239 14.7972 184.007 14.7972C181.106 14.7972 178.972 16.1434 177.948 18.6824H177.829V15.1209H171.958V34.0873Z" fill="white"/>
<path d="M193.735 34.0873H199.776V23.3857C199.776 21.2386 201.176 19.7219 203.224 19.7219C205.306 19.7219 206.5 21.0341 206.5 23.2323V34.0873H212.559V21.9372C212.559 17.4555 210.016 14.7972 205.783 14.7972C202.882 14.7972 200.749 16.1434 199.725 18.6824H199.605V15.1209H193.735V34.0873Z" fill="white"/>
<path d="M224.42 19.0062C226.434 19.0062 227.816 20.3695 227.935 22.4655H220.87C221.024 20.4377 222.474 19.0062 224.42 19.0062ZM228.072 28.123C227.611 29.4181 226.297 30.202 224.625 30.202C222.355 30.202 220.802 28.6172 220.802 26.2997V25.9248H233.653V24.2037C233.653 18.4268 230 14.7119 224.334 14.7119C218.566 14.7119 214.914 18.5802 214.914 24.6978C214.914 30.7984 218.532 34.4963 224.539 34.4963C229.454 34.4963 232.953 32.0083 233.533 28.123H228.072Z" fill="white"/>
<path d="M236.093 34.0873H242.135V24.0673C242.135 21.409 243.568 19.9435 246.162 19.9435C246.845 19.9435 247.596 20.0628 248.108 20.2843V15.1039C247.698 14.9676 247.135 14.8653 246.572 14.8653C244.319 14.8653 242.766 16.1604 242.083 18.6824H241.964V15.1209H236.093V34.0873Z" fill="white"/>
<path d="M249.678 20.8637C249.678 23.7436 251.64 25.6862 255.344 26.4701L258.911 27.2199C260.43 27.5437 261.01 27.9867 261.01 28.7706C261.01 29.793 259.986 30.4065 258.296 30.4065C256.47 30.4065 255.293 29.5715 255.105 28.1401H249.234C249.49 31.9913 252.716 34.4963 258.177 34.4963C263.45 34.4963 267 31.9913 267 28.089C267 25.2261 265.396 23.6924 261.607 22.8915L257.682 22.0736C256.214 21.7668 255.497 21.2386 255.497 20.4717C255.497 19.4663 256.504 18.8017 258.04 18.8017C259.781 18.8017 260.907 19.6708 260.959 21.0341H266.488C266.454 17.1488 263.228 14.7119 258.108 14.7119C252.937 14.7119 249.678 17.0977 249.678 20.8637Z" fill="white"/>
</svg>
