<svg width="178" height="28" viewBox="0 0 178 28" fill="none" xmlns="http://www.w3.org/2000/svg">
<path d="M0.687225 9.68765L13.0475 16.8291C13.2562 16.9497 13.4931 17.0131 13.7341 17.0131C13.9752 17.0131 14.212 16.9497 14.4208 16.8291L26.7811 9.68765C26.9886 9.56781 27.1612 9.39575 27.2817 9.18855C27.4022 8.98135 27.4663 8.74623 27.4677 8.50656C27.4687 8.26456 27.4057 8.0266 27.2851 7.81678C27.1645 7.60696 26.9907 7.43273 26.7811 7.31174L14.4208 0.183995C14.212 0.063458 13.9752 0 13.7341 0C13.4931 0 13.2562 0.063458 13.0475 0.183995L0.687225 7.31174C0.477644 7.43273 0.303757 7.60696 0.183172 7.81678C0.0625863 8.0266 -0.000415928 8.26456 0.00054483 8.50656C0.00199149 8.74623 0.066135 8.98135 0.1866 9.18855C0.307066 9.39575 0.479658 9.56781 0.687225 9.68765ZM25.4077 12.8601L13.7341 19.4934L2.06059 12.8052C1.90384 12.7144 1.73068 12.6555 1.55107 12.6319C1.37146 12.6083 1.18896 12.6204 1.01408 12.6677C0.839196 12.7149 0.675384 12.7963 0.532078 12.9071C0.388772 13.0179 0.268803 13.1559 0.179082 13.3133C3.34233e-05 13.6287 -0.0470265 14.002 0.0481705 14.3519C0.143368 14.7019 0.373094 14.9999 0.687225 15.1811L13.0475 22.3226C13.2562 22.4431 13.4931 22.5066 13.7341 22.5066C13.9752 22.5066 14.212 22.4431 14.4208 22.3226L26.7811 15.1811C27.0952 14.9999 27.3249 14.7019 27.4201 14.3519C27.5153 14.002 27.4683 13.6287 27.2892 13.3133C27.1995 13.1559 27.0795 13.0179 26.9362 12.9071C26.7929 12.7963 26.6291 12.7149 26.4542 12.6677C26.2793 12.6204 26.0968 12.6083 25.9172 12.6319C25.7376 12.6555 25.5645 12.7144 25.4077 12.8052V12.8601ZM25.4077 18.3535L13.7341 24.9869L2.06059 18.2986C1.90384 18.2078 1.73068 18.1489 1.55107 18.1253C1.37146 18.1017 1.18896 18.1139 1.01408 18.1611C0.839196 18.2083 0.675384 18.2897 0.532078 18.4005C0.388772 18.5113 0.268803 18.6494 0.179082 18.8068C3.34233e-05 19.1221 -0.0470265 19.4955 0.0481705 19.8454C0.143368 20.1953 0.373094 20.4934 0.687225 20.6745L13.0475 27.816C13.2562 27.9365 13.4931 28 13.7341 28C13.9752 28 14.212 27.9365 14.4208 27.816L26.7811 20.6745C27.0952 20.4934 27.3249 20.1953 27.4201 19.8454C27.5153 19.4955 27.4683 19.1221 27.2892 18.8068C27.1995 18.6494 27.0795 18.5113 26.9362 18.4005C26.7929 18.2897 26.6291 18.2083 26.4542 18.1611C26.2793 18.1139 26.0968 18.1017 25.9172 18.1253C25.7376 18.1489 25.5645 18.2078 25.4077 18.2986V18.3535Z" fill="white"/>
<path d="M49.1449 22.7249V9.69436H53.6891V6.33165H40.4314V9.69436H44.9756V22.7249H49.1449Z" fill="white"/>
<path d="M54.7115 22.7249H58.7331V16.0449C58.7331 14.2726 59.6874 13.2956 61.4142 13.2956C61.8686 13.2956 62.3685 13.3752 62.7093 13.5229V10.0693C62.4367 9.97837 62.0618 9.91021 61.6869 9.91021C60.1873 9.91021 59.1535 10.7736 58.6991 12.455H58.6195V10.0806H54.7115V22.7249Z" fill="white"/>
<path d="M68.9008 20.1006C67.867 20.1006 67.1967 19.6007 67.1967 18.7941C67.1967 18.0216 67.8215 17.5331 68.969 17.4536L71.2979 17.2945V18.1693C71.2979 19.3281 70.1959 20.1006 68.9008 20.1006ZM67.4807 22.8953C69.0144 22.8953 70.5594 22.1796 71.2411 20.9072H71.3206V22.7249H75.2286V14.0682C75.2286 11.5234 72.9906 9.80797 69.6165 9.80797C66.197 9.80797 63.959 11.5007 63.8567 14.0568H67.4807C67.5943 13.2729 68.3328 12.6935 69.4234 12.6935C70.5594 12.6935 71.2979 13.2502 71.2979 14.284V15.0111L68.3328 15.1929C65.0269 15.3973 63.2092 16.7038 63.2092 19.0668C63.2092 21.3389 65.1064 22.8953 67.4807 22.8953Z" fill="white"/>
<path d="M78.2619 22.7249H82.2835V13.0571H84.4988V10.0806H82.1812V9.28538C82.1812 8.54695 82.5902 8.21749 83.5672 8.21749C83.9762 8.21749 84.2489 8.25158 84.4874 8.29702V5.63866C83.9762 5.57049 83.3741 5.51369 82.7152 5.51369C79.4888 5.51369 78.2619 6.50206 78.2619 8.97865V10.0806H76.5692V13.0571H78.2619V22.7249Z" fill="white"/>
<path d="M94.2688 22.8953C97.4384 22.8953 99.2902 20.4982 99.2902 16.3971C99.2902 12.2959 97.4271 9.91021 94.2347 9.91021C92.4284 9.91021 91.0538 10.7963 90.4063 12.2959H90.3154V5.51369H86.2938V22.7249H90.2927V20.555H90.3722C91.0197 22.0205 92.4171 22.8953 94.2688 22.8953ZM92.7465 13.0798C94.212 13.0798 95.1777 14.3863 95.1777 16.3971C95.1777 18.4306 94.2234 19.7257 92.7465 19.7257C91.2583 19.7257 90.304 18.4306 90.304 16.4084C90.304 14.3976 91.2697 13.0798 92.7465 13.0798Z" fill="white"/>
<path d="M106.118 20.1006C105.084 20.1006 104.414 19.6007 104.414 18.7941C104.414 18.0216 105.039 17.5331 106.186 17.4536L108.515 17.2945V18.1693C108.515 19.3281 107.413 20.1006 106.118 20.1006ZM104.698 22.8953C106.231 22.8953 107.776 22.1796 108.458 20.9072H108.538V22.7249H112.446V14.0682C112.446 11.5234 110.208 9.80797 106.834 9.80797C103.414 9.80797 101.176 11.5007 101.074 14.0568H104.698C104.811 13.2729 105.55 12.6935 106.64 12.6935C107.776 12.6935 108.515 13.2502 108.515 14.284V15.0111L105.55 15.1929C102.244 15.3973 100.426 16.7038 100.426 19.0668C100.426 21.3389 102.323 22.8953 104.698 22.8953Z" fill="white"/>
<path d="M114.468 22.7249H118.489V15.5905C118.489 14.159 119.421 13.148 120.784 13.148C122.17 13.148 122.965 14.0227 122.965 15.4882V22.7249H126.998V14.6248C126.998 11.637 125.306 9.86477 122.488 9.86477C120.557 9.86477 119.137 10.7622 118.455 12.455H118.376V10.0806H114.468V22.7249Z" fill="white"/>
<path d="M128.964 22.7249H132.985V15.5905C132.985 14.159 133.917 13.148 135.28 13.148C136.666 13.148 137.462 14.0227 137.462 15.4882V22.7249H141.495V14.6248C141.495 11.637 139.802 9.86477 136.984 9.86477C135.053 9.86477 133.633 10.7622 132.951 12.455H132.872V10.0806H128.964V22.7249Z" fill="white"/>
<path d="M149.39 12.6708C150.731 12.6708 151.651 13.5797 151.73 14.977H147.027C147.129 13.6251 148.095 12.6708 149.39 12.6708ZM151.821 18.7487C151.514 19.6121 150.64 20.1347 149.526 20.1347C148.015 20.1347 146.982 19.0781 146.982 17.5331V17.2832H155.536V16.1358C155.536 12.2846 153.105 9.80797 149.333 9.80797C145.493 9.80797 143.062 12.3868 143.062 16.4652C143.062 20.5323 145.471 22.9975 149.47 22.9975C152.741 22.9975 155.07 21.3389 155.457 18.7487H151.821Z" fill="white"/>
<path d="M157.161 22.7249H161.182V16.0449C161.182 14.2726 162.137 13.2956 163.863 13.2956C164.318 13.2956 164.818 13.3752 165.158 13.5229V10.0693C164.886 9.97837 164.511 9.91021 164.136 9.91021C162.636 9.91021 161.603 10.7736 161.148 12.455H161.069V10.0806H157.161V22.7249Z" fill="white"/>
<path d="M166.204 13.9091C166.204 15.829 167.51 17.1241 169.975 17.6467L172.35 18.1466C173.361 18.3624 173.747 18.6578 173.747 19.1804C173.747 19.862 173.065 20.271 171.941 20.271C170.725 20.271 169.941 19.7143 169.816 18.7601H165.908C166.079 21.3275 168.226 22.9975 171.861 22.9975C175.372 22.9975 177.735 21.3275 177.735 18.726C177.735 16.8174 176.667 15.795 174.145 15.261L171.532 14.7157C170.555 14.5112 170.078 14.159 170.078 13.6478C170.078 12.9775 170.748 12.5345 171.77 12.5345C172.929 12.5345 173.679 13.1139 173.713 14.0227H177.394C177.371 11.4325 175.224 9.80797 171.816 9.80797C168.374 9.80797 166.204 11.3984 166.204 13.9091Z" fill="white"/>
</svg>
