<svg width="110" height="110" viewBox="0 0 110 110" fill="none" xmlns="http://www.w3.org/2000/svg">
<path d="M68.1218 13.9594L13.9594 68.1218C6.24983 75.8314 6.24983 88.3311 13.9594 96.0406C21.6689 103.75 34.1686 103.75 41.8782 96.0406L96.0406 41.8782C103.75 34.1686 103.75 21.669 96.0406 13.9594C88.331 6.24986 75.8314 6.24986 68.1218 13.9594Z" fill="#FBEAE4"/>
<path d="M76.5824 38.0381H15.431C12.6442 38.0381 10.385 40.2972 10.385 43.084V76.8342C10.385 79.621 12.6442 81.8801 15.431 81.8801H76.5824C79.3692 81.8801 81.6284 79.621 81.6284 76.8342V43.084C81.6284 40.2972 79.3692 38.0381 76.5824 38.0381Z" fill="white"/>
<path d="M82.7576 59.272H11.5221L11.1747 50.254H82.418L82.7576 59.272Z" fill="#D5DFEB"/>
<path d="M55.0168 34.4292C54.1047 34.4292 53.2131 34.1587 52.4547 33.652C51.6963 33.1453 51.1052 32.425 50.7562 31.5824C50.4071 30.7397 50.3158 29.8124 50.4938 28.9179C50.6717 28.0233 51.1109 27.2016 51.7559 26.5566C52.4008 25.9117 53.2225 25.4725 54.1171 25.2945C55.0117 25.1166 55.9389 25.2079 56.7816 25.557C57.6242 25.906 58.3445 26.4971 58.8512 27.2555C59.3579 28.0139 59.6284 28.9055 59.6284 29.8176C59.6284 31.0406 59.1425 32.2136 58.2777 33.0785C57.4128 33.9433 56.2399 34.4292 55.0168 34.4292ZM55.0168 27.5828C54.5732 27.5828 54.1396 27.7143 53.7708 27.9608C53.402 28.2072 53.1146 28.5574 52.9449 28.9672C52.7751 29.377 52.7307 29.8279 52.8172 30.263C52.9038 30.698 53.1174 31.0976 53.431 31.4112C53.7446 31.7249 54.1442 31.9385 54.5793 32.025C55.0143 32.1115 55.4652 32.0671 55.875 31.8974C56.2848 31.7276 56.635 31.4402 56.8815 31.0714C57.1279 30.7026 57.2594 30.269 57.2594 29.8255C57.2594 29.2307 57.0231 28.6602 56.6026 28.2397C56.182 27.8191 55.6116 27.5828 55.0168 27.5828Z" fill="#3E6177"/>
<path d="M38.5761 94.0251C37.664 94.0251 36.7724 93.7547 36.014 93.2479C35.2556 92.7412 34.6646 92.021 34.3155 91.1783C33.9665 90.3356 33.8752 89.4084 34.0531 88.5138C34.231 87.6193 34.6702 86.7975 35.3152 86.1526C35.9601 85.5076 36.7819 85.0684 37.6764 84.8905C38.571 84.7126 39.4982 84.8039 40.3409 85.1529C41.1836 85.502 41.9038 86.0931 42.4105 86.8514C42.9173 87.6098 43.1877 88.5014 43.1877 89.4135C43.1877 90.6366 42.7019 91.8096 41.837 92.6744C40.9722 93.5393 39.7992 94.0251 38.5761 94.0251ZM38.5761 87.1788C38.1326 87.1788 37.699 87.3103 37.3302 87.5567C36.9614 87.8031 36.6739 88.1534 36.5042 88.5632C36.3344 88.973 36.29 89.4239 36.3766 89.8589C36.4631 90.294 36.6767 90.6936 36.9903 91.0072C37.304 91.3208 37.7036 91.5344 38.1386 91.621C38.5736 91.7075 39.0245 91.6631 39.4343 91.4933C39.8441 91.3236 40.1944 91.0362 40.4408 90.6674C40.6872 90.2986 40.8187 89.865 40.8187 89.4214C40.8229 89.1243 40.768 88.8292 40.6572 88.5535C40.5464 88.2777 40.3818 88.0268 40.1732 87.8152C39.9645 87.6036 39.7159 87.4355 39.4417 87.3209C39.1675 87.2062 38.8733 87.1472 38.5761 87.1472V87.1788Z" fill="#F5A8A0"/>
<path d="M88.4116 68.1874C89.4539 68.1874 90.2989 67.3425 90.2989 66.3001C90.2989 65.2578 89.4539 64.4128 88.4116 64.4128C87.3693 64.4128 86.5243 65.2578 86.5243 66.3001C86.5243 67.3425 87.3693 68.1874 88.4116 68.1874Z" fill="#F5A8A0"/>
<path d="M28.8158 88.7344C29.8581 88.7344 30.7031 87.8895 30.7031 86.8471C30.7031 85.8048 29.8581 84.9598 28.8158 84.9598C27.7735 84.9598 26.9285 85.8048 26.9285 86.8471C26.9285 87.8895 27.7735 88.7344 28.8158 88.7344Z" fill="#D5DFEB"/>
<path opacity="0.3" d="M71.8614 66.3363L63.4058 75.2404L65.1236 76.8717L73.5792 67.9676L71.8614 66.3363Z" fill="#F5A8A0"/>
<path opacity="0.3" d="M73.6758 70.1566L68.3303 75.9474L70.071 77.5542L75.4165 71.7635L73.6758 70.1566Z" fill="#F5A8A0"/>
<path d="M43.5747 69.5614H18.195C17.5364 69.5614 17.0026 70.0952 17.0026 70.7538V70.7617C17.0026 71.4202 17.5364 71.9541 18.195 71.9541H43.5747C44.2332 71.9541 44.7671 71.4202 44.7671 70.7617V70.7538C44.7671 70.0952 44.2332 69.5614 43.5747 69.5614Z" fill="#D5DFEB"/>
<path d="M54.172 65.2578H18.195C17.5364 65.2578 17.0026 65.7917 17.0026 66.4502V66.4581C17.0026 67.1166 17.5364 67.6505 18.195 67.6505H54.172C54.8305 67.6505 55.3644 67.1166 55.3644 66.4581V66.4502C55.3644 65.7917 54.8305 65.2578 54.172 65.2578Z" fill="#D5DFEB"/>
<path d="M77.3722 83.0646H16.2286C14.5768 83.0625 12.9933 82.4054 11.8253 81.2374C10.6573 80.0695 10.0003 78.4859 9.99817 76.8342V43.0919C10.0003 41.4401 10.6573 39.8566 11.8253 38.6886C12.9933 37.5206 14.5768 36.8635 16.2286 36.8615H77.3722C79.0239 36.8635 80.6075 37.5206 81.7754 38.6886C82.9434 39.8566 83.6005 41.4401 83.6026 43.0919V76.8342C83.6005 78.4859 82.9434 80.0695 81.7754 81.2374C80.6075 82.4054 79.0239 83.0625 77.3722 83.0646ZM16.2286 39.2225C15.2038 39.2246 14.2216 39.6332 13.4977 40.3586C12.7737 41.0841 12.3672 42.067 12.3672 43.0919V76.8342C12.3692 77.8576 12.7767 78.8386 13.5005 79.5623C14.2242 80.286 15.2051 80.6935 16.2286 80.6956H77.3722C78.3956 80.6935 79.3766 80.286 80.1003 79.5623C80.824 78.8386 81.2315 77.8576 81.2336 76.8342V43.0919C81.2315 42.0684 80.824 41.0874 80.1003 40.3637C79.3766 39.64 78.3956 39.2325 77.3722 39.2304L16.2286 39.2225Z" fill="#3E6177"/>
<path d="M82.4259 49.0696H11.1826V51.4386H82.4259V49.0696Z" fill="#3E6177"/>
<path d="M82.7655 58.0876H11.5222V60.4566H82.7655V58.0876Z" fill="#3E6177"/>
<path d="M78.754 43.8657H77.1747V53.4601H78.754V43.8657Z" fill="white"/>
<path d="M78.754 54.8262H77.1747V58.9324H78.754V54.8262Z" fill="white"/>
<path d="M78.754 60.3065H77.1747V61.6726H78.754V60.3065Z" fill="white"/>
<path d="M76.6851 62.1859C87.6099 62.1859 96.4661 53.3296 96.4661 42.4048C96.4661 31.4801 87.6099 22.6238 76.6851 22.6238C65.7603 22.6238 56.9041 31.4801 56.9041 42.4048C56.9041 53.3296 65.7603 62.1859 76.6851 62.1859Z" fill="white"/>
<path d="M77.3642 58.4509C86.2262 58.4509 93.4102 51.2669 93.4102 42.4049C93.4102 33.543 86.2262 26.359 77.3642 26.359C68.5023 26.359 61.3183 33.543 61.3183 42.4049C61.3183 51.2669 68.5023 58.4509 77.3642 58.4509Z" fill="#F5A8A0"/>
<path d="M77.4748 58.8536C74.0669 58.8536 70.7356 57.843 67.902 55.9497C65.0685 54.0564 62.8601 51.3654 61.5559 48.2169C60.2518 45.0685 59.9106 41.604 60.5754 38.2617C61.2402 34.9193 62.8813 31.8491 65.291 29.4394C67.7007 27.0297 70.7709 25.3886 74.1133 24.7238C77.4556 24.0589 80.9201 24.4002 84.0686 25.7043C87.217 27.0084 89.908 29.2169 91.8013 32.0504C93.6947 34.884 94.7052 38.2153 94.7052 41.6231C94.6989 46.191 92.8816 50.57 89.6516 53.8C86.4216 57.03 82.0426 58.8473 77.4748 58.8536ZM77.4748 26.7617C74.5354 26.7617 71.6621 27.6333 69.2182 29.2663C66.7742 30.8993 64.8694 33.2203 63.7446 35.9359C62.6198 38.6515 62.3254 41.6396 62.8989 44.5225C63.4723 47.4053 64.8877 50.0534 66.9661 52.1318C69.0445 54.2102 71.6926 55.6256 74.5754 56.199C77.4583 56.7725 80.4464 56.4782 83.162 55.3533C85.8776 54.2285 88.1986 52.3237 89.8316 49.8797C91.4646 47.4358 92.3362 44.5625 92.3362 41.6231C92.3341 37.6816 90.7679 33.9019 87.9816 31.114C85.1952 28.3262 81.4163 26.758 77.4748 26.7538V26.7617Z" fill="#3E6177"/>
<path d="M70.0677 40.7544V38.188C70.0378 37.842 70.0869 37.4937 70.2114 37.1695C70.3359 36.8452 70.5325 36.5536 70.7863 36.3165C71.3411 35.8969 72.0264 35.6871 72.721 35.7243C73.4178 35.6886 74.1052 35.8982 74.6636 36.3165C74.9203 36.5517 75.1194 36.8429 75.2453 37.1675C75.3713 37.492 75.4209 37.8413 75.3901 38.188V40.7781C75.4209 41.1249 75.3713 41.4742 75.2453 41.7987C75.1194 42.1233 74.9203 42.4145 74.6636 42.6496C74.1052 43.068 73.4178 43.2776 72.721 43.2419C72.0264 43.2791 71.3411 43.0693 70.7863 42.6496C70.5291 42.4101 70.3306 42.1145 70.2059 41.7859C70.0813 41.4572 70.034 41.1043 70.0677 40.7544ZM71.8208 40.7544C71.8061 40.8752 71.8195 40.9976 71.8599 41.1123C71.9003 41.227 71.9666 41.3309 72.0538 41.4157C72.1409 41.5005 72.2465 41.5641 72.3622 41.6014C72.4779 41.6388 72.6007 41.6489 72.721 41.631C73.3369 41.631 73.6449 41.3388 73.6449 40.7544V38.188C73.6449 37.6037 73.3369 37.3115 72.721 37.3115C72.6001 37.2922 72.4764 37.3013 72.3597 37.338C72.2429 37.3748 72.1363 37.4381 72.0482 37.5232C71.9601 37.6082 71.893 37.7125 71.8522 37.8279C71.8114 37.9433 71.7979 38.0666 71.8129 38.188L71.8208 40.7544ZM72.7763 48.9038C72.7782 48.7828 72.808 48.6639 72.8631 48.5563L79.1804 35.4163C79.2484 35.2676 79.3609 35.1437 79.5024 35.0617C79.6438 34.9796 79.8073 34.9435 79.9701 34.9583C80.2425 34.9592 80.5057 35.0572 80.7124 35.2347C80.8197 35.3156 80.9065 35.4207 80.9655 35.5415C81.0245 35.6622 81.0541 35.7952 81.0519 35.9296C81.0549 36.0493 81.0306 36.1681 80.9809 36.2771L74.6636 49.417C74.5956 49.5658 74.4831 49.6897 74.3416 49.7717C74.2002 49.8538 74.0368 49.8899 73.8739 49.875C73.7373 49.879 73.6014 49.8544 73.475 49.8027C73.3485 49.751 73.2342 49.6735 73.1395 49.575C73.035 49.4951 72.9486 49.394 72.886 49.2783C72.8234 49.1626 72.786 49.0349 72.7763 48.9038ZM78.3039 46.6216V44.0315C78.2702 43.6817 78.3175 43.3288 78.4421 43.0001C78.5667 42.6715 78.7653 42.3759 79.0225 42.1364C79.5772 41.7167 80.2626 41.5069 80.9572 41.5441C81.654 41.5084 82.3414 41.718 82.8998 42.1364C83.1565 42.3715 83.3555 42.6627 83.4815 42.9873C83.6075 43.3118 83.657 43.6611 83.6262 44.0079V46.598C83.6546 46.9422 83.6038 47.2883 83.4779 47.6099C83.352 47.9316 83.1542 48.2201 82.8998 48.4537C82.3414 48.8721 81.654 49.0816 80.9572 49.0459C80.2626 49.0831 79.5772 48.8733 79.0225 48.4537C78.7741 48.2209 78.5807 47.9357 78.4564 47.6188C78.3321 47.3019 78.28 46.9612 78.3039 46.6216ZM80.057 46.6216C80.0423 46.7424 80.0556 46.8648 80.096 46.9795C80.1365 47.0942 80.2028 47.1981 80.29 47.2829C80.3771 47.3677 80.4826 47.4313 80.5984 47.4686C80.7141 47.506 80.8369 47.5161 80.9572 47.4982C81.5731 47.4982 81.8811 47.206 81.8811 46.6216V44.0315C81.8811 43.4472 81.5731 43.155 80.9572 43.155C80.8357 43.1344 80.7111 43.1424 80.5933 43.1785C80.4755 43.2146 80.3678 43.2778 80.2788 43.363C80.1898 43.4481 80.1219 43.553 80.0807 43.6691C80.0394 43.7852 80.0259 43.9093 80.0412 44.0315L80.057 46.6216Z" fill="white"/>
</svg>
