<svg width="110" height="110" viewBox="0 0 110 110" fill="none" xmlns="http://www.w3.org/2000/svg">
<path d="M68.1218 13.9594L13.9594 68.1218C6.24983 75.8314 6.24983 88.3311 13.9594 96.0406C21.669 103.75 34.1686 103.75 41.8782 96.0406L96.0406 41.8782C103.75 34.1686 103.75 21.669 96.0406 13.9594C88.331 6.24986 75.8314 6.24986 68.1218 13.9594Z" fill="#FBEAE4"/>
<path d="M75.2326 14.3327L75.1615 15.8646C75.0935 17.3765 75.5604 18.8639 76.4802 20.0657L77.412 21.2817C78.3302 22.4828 78.7962 23.9688 78.7284 25.4791C78.6605 26.9895 78.0631 28.4277 77.0409 29.5416L76.0064 30.6708C74.9824 31.7855 74.3841 33.2254 74.3166 34.7376L74.2455 36.2695C74.1765 37.7805 73.5775 39.2188 72.5537 40.3322C71.5299 41.4455 70.1467 42.1627 68.6468 42.3578L67.1306 42.5552C65.6296 42.751 64.2455 43.4695 63.2218 44.5847L62.1873 45.6823C61.1633 46.7961 59.7795 47.5135 58.2791 47.7084C56.7786 47.9034 55.2575 47.5634 53.9828 46.7483L52.6956 45.9587C51.4215 45.1425 49.9005 44.8014 48.3998 44.9953L46.8758 45.1295C45.3767 45.3233 43.8572 44.9832 42.5837 44.1689C41.3102 43.3545 40.364 42.1179 39.911 40.6758L39.453 39.215C38.9999 37.7703 38.052 36.5317 36.776 35.7168L35.4889 34.9271C34.2143 34.1115 33.2678 32.8728 32.8158 31.4286C32.3638 29.9845 32.4351 28.4273 33.0172 27.0305L33.6016 25.617C34.1824 24.2196 34.2523 22.6623 33.799 21.2186L33.341 19.7577C32.8875 18.3166 32.9554 16.7618 33.5329 15.3658C34.1104 13.9697 35.1606 12.8213 36.4996 12.1216L37.8579 11.4188C39.1996 10.7227 40.2535 9.57656 40.8349 8.18123L41.4192 6.76774C42.0009 5.37144 43.0558 4.22463 44.3987 3.52861C45.7417 2.83258 47.2869 2.63182 48.7631 2.96156L50.2871 3.27743C51.7643 3.6073 53.3105 3.40599 54.654 2.70887L56.0122 2.00607C57.3572 1.31289 58.9034 1.11579 60.3793 1.44938C61.8552 1.78297 63.1664 2.62593 64.0825 3.83019L65.038 5.04627C65.9582 6.24773 67.2723 7.08651 68.7494 7.41526L70.2419 7.74692C71.7144 8.08435 73.0214 8.92904 73.9338 10.1331C74.8462 11.3371 75.306 12.8238 75.2326 14.3327Z" fill="white"/>
<path d="M87.2195 41.0155C86.2372 41.0155 85.2769 40.7242 84.46 40.1784C83.6432 39.6326 83.0066 38.8569 82.6307 37.9493C82.2547 37.0417 82.1564 36.043 82.348 35.0795C82.5397 34.116 83.0127 33.231 83.7074 32.5363C84.402 31.8417 85.287 31.3686 86.2505 31.177C87.214 30.9853 88.2127 31.0837 89.1203 31.4596C90.0279 31.8356 90.8037 32.4722 91.3494 33.289C91.8952 34.1058 92.1865 35.0661 92.1865 36.0485C92.1844 37.3652 91.6605 38.6274 90.7294 39.5584C89.7984 40.4894 88.5362 41.0134 87.2195 41.0155ZM87.2195 33.4426C86.7057 33.4426 86.2034 33.595 85.7762 33.8805C85.3489 34.1659 85.0159 34.5717 84.8193 35.0464C84.6227 35.5211 84.5712 36.0435 84.6715 36.5475C84.7717 37.0514 85.0192 37.5143 85.3825 37.8777C85.7458 38.241 86.2087 38.4885 86.7127 38.5887C87.2167 38.6889 87.739 38.6375 88.2138 38.4409C88.6885 38.2442 89.0942 37.9112 89.3797 37.484C89.6652 37.0568 89.8175 36.5545 89.8175 36.0406C89.8134 35.3536 89.5381 34.696 89.0515 34.211C88.565 33.7259 87.9066 33.4526 87.2195 33.4505V33.4426Z" fill="#F5A8A0"/>
<path d="M55.0014 47.5697L39.6819 81.5014L36.5312 72.6177L27.7738 76.1238L41.6008 44.4347" fill="#D5DFEB"/>
<path d="M55.4277 47.5695L70.7392 81.5013L73.8979 72.6176L82.6552 76.1237L67.3358 42.1919" fill="#D5DFEB"/>
<path d="M67.6595 17.8624L67.6121 18.8652C67.567 19.854 67.8718 20.827 68.4729 21.6133L69.0809 22.4029C69.681 23.1886 69.9853 24.1605 69.9405 25.1481C69.8958 26.1357 69.5048 27.076 68.8361 27.8042L68.1965 28.5465C67.528 29.2738 67.1367 30.213 67.091 31.1998L67.0436 32.2026C66.9911 33.1841 66.5967 34.1162 65.9289 34.8374C65.2611 35.5586 64.362 36.0233 63.3874 36.151L62.3925 36.2773C61.4129 36.4064 60.51 36.8761 59.8419 37.6039L59.1627 38.3383C58.4929 39.0654 57.5886 39.5335 56.6082 39.6605C55.6278 39.7876 54.634 39.5655 53.8009 39.0332L52.956 38.4963C52.1214 37.9643 51.1261 37.7434 50.1448 37.8724L49.1182 38.0225C48.1375 38.1495 47.1433 37.927 46.3101 37.3942C45.4769 36.8614 44.858 36.0522 44.5619 35.1086L44.2618 34.1531C43.9658 33.2113 43.348 32.4035 42.5167 31.871L41.6717 31.334C40.8464 30.7954 40.2363 29.9842 39.9477 29.0419C39.6591 28.0996 39.7103 27.0859 40.0924 26.1775L40.4793 25.2536C40.8442 24.3321 40.8722 23.3114 40.5583 22.3713L40.274 21.4395C39.9792 20.4962 40.0256 19.4792 40.4054 18.5667C40.7851 17.6543 41.4738 16.9045 42.3508 16.4489L43.2432 15.9909C44.1218 15.5366 44.8123 14.7873 45.1936 13.8746L45.5806 12.9507C45.9612 12.0382 46.651 11.2888 47.5288 10.834C48.4067 10.3792 49.4167 10.2479 50.3817 10.4632L51.3609 10.6843C52.3252 10.899 53.3343 10.7676 54.2116 10.3132L55.1039 9.8552C55.9814 9.40093 56.9907 9.26987 57.9552 9.48499C58.9196 9.70011 59.7776 10.2477 60.3788 11.0318L60.9869 11.8215C61.5829 12.6178 62.4418 13.1774 63.4111 13.4008L64.3903 13.6219C65.3427 13.8395 66.1897 14.3816 66.7862 15.1553C67.3826 15.9289 67.6914 16.886 67.6595 17.8624Z" fill="#F5A8A0"/>
<path d="M39.5555 84.6759L35.8283 74.1734L25.5311 78.3034L40.511 43.9609L42.6826 44.9085L30.0164 73.9523L37.2339 71.0543L39.8161 78.3349L53.9195 47.088L56.0832 48.0593L39.5555 84.6759Z" fill="#3E6177"/>
<path d="M70.8736 84.6757L54.3459 48.0591L56.5017 47.0878L70.613 78.3348L73.1952 71.0541L80.3653 73.9284L66.2541 42.6815L68.4098 41.7102L84.9375 78.319L74.6008 74.1732L70.8736 84.6757Z" fill="#3E6177"/>
<path d="M56.6596 48.9515C55.2041 48.9531 53.7788 48.5364 52.5533 47.7512L51.2662 46.9616C50.2262 46.2954 48.9852 46.0159 47.7601 46.1719L46.2439 46.3693C44.4677 46.6016 42.6664 46.2 41.157 45.2351C39.6476 44.2703 38.5269 42.8041 37.992 41.0944L37.534 39.6019C37.1641 38.4256 36.3927 37.4166 35.3545 36.7512L34.0673 35.9616C32.5571 34.9988 31.4352 33.5338 30.8992 31.8249C30.3633 30.1159 30.4477 28.2727 31.1377 26.6199L31.722 25.2064C32.2004 24.0542 32.2535 22.7696 31.8721 21.5818L31.4141 20.121C30.8765 18.4107 30.9605 16.5656 31.6511 14.9112C32.3418 13.2569 33.5947 11.8997 35.1887 11.0793L36.5469 10.3844C37.6444 9.81358 38.5056 8.8741 38.979 7.73115L39.5634 6.31765C40.2489 4.66385 41.4959 3.30492 43.0848 2.48012C44.6737 1.65533 46.5027 1.41756 48.2497 1.80868L49.7421 2.14034C50.9469 2.41766 52.2108 2.26107 53.3114 1.69813L54.6696 0.995329C56.2591 0.160599 58.0927 -0.0848264 59.8458 0.302498C61.5989 0.689823 63.1584 1.68492 64.2482 3.11162L65.18 4.3277C65.9276 5.30635 66.9953 5.99114 68.1966 6.26238L69.689 6.59404C71.4374 6.98266 72.9926 7.97597 74.0804 9.39891C75.1681 10.8218 75.7188 12.5831 75.6352 14.3722L75.5562 15.9121C75.5003 17.1451 75.8805 18.3585 76.6301 19.3392L77.5619 20.5553C78.6527 21.9768 79.2065 23.7379 79.1256 25.5279C79.0447 27.3179 78.3343 29.0218 77.1197 30.3392L76.0932 31.4605C75.2575 32.3695 74.7683 33.5436 74.7113 34.7771L74.6402 36.309C74.5619 38.0986 73.8543 39.8031 72.6423 41.122C71.4303 42.441 69.7915 43.2897 68.0149 43.5187L66.4988 43.7161C65.2857 43.8812 64.1684 44.465 63.3401 45.3665L62.3057 46.4957C61.5878 47.276 60.7146 47.8977 59.7423 48.3206C58.7699 48.7435 57.7199 48.9584 56.6596 48.9515ZM48.455 43.7319C49.9102 43.7321 51.335 44.1486 52.5612 44.9321L53.8484 45.7218C54.8873 46.3869 56.1275 46.6645 57.3508 46.5056C58.5741 46.3467 59.7023 45.7616 60.5368 44.8532L61.5713 43.724C62.7888 42.4169 64.4264 41.5785 66.1987 41.355L67.6991 41.1813C68.9227 41.0227 70.0511 40.4377 70.886 39.5292C71.7208 38.6207 72.2085 37.4469 72.2633 36.2143L72.3344 34.6823C72.4178 32.8936 73.1278 31.1912 74.3401 29.8733L75.3746 28.7441C76.2119 27.8363 76.7019 26.6621 76.7582 25.4284C76.8145 24.1947 76.4336 22.9807 75.6826 22.0003L74.7508 20.7685C73.6551 19.3478 73.0958 17.5861 73.1714 15.7936L73.2425 14.2617C73.2999 13.0285 72.9203 11.8146 72.1706 10.8338C71.4209 9.85294 70.3492 9.1681 69.1441 8.89985L67.6517 8.56819C65.9046 8.17789 64.3504 7.18556 63.2612 5.76489L62.353 4.54881C61.6038 3.56801 60.5325 2.88299 59.3278 2.61432C58.1231 2.34565 56.8623 2.51057 55.7673 3.08004L54.409 3.78284C52.8194 4.60482 50.9916 4.84239 49.2447 4.45405L47.7443 4.12239C46.5398 3.85123 45.2782 4.01383 44.1818 4.58153C43.0854 5.14923 42.2245 6.08562 41.7508 7.22577L41.1664 8.63926C40.4771 10.2934 39.2275 11.6521 37.6366 12.477L36.2784 13.1798C35.1824 13.7474 34.3218 14.6834 33.848 15.8231C33.3743 16.9627 33.3177 18.233 33.6883 19.4103L34.1463 20.8711C34.6797 22.5799 34.5959 24.4218 33.9094 26.075L33.3251 27.4885C32.8509 28.6276 32.7937 29.8975 33.1635 31.0746C33.5332 32.2518 34.3063 33.2608 35.3466 33.9243L36.6337 34.7139C38.1388 35.6807 39.2567 37.1451 39.7924 38.8517L40.2504 40.3916C40.6191 41.5693 41.3914 42.5793 42.4313 43.2437C43.4713 43.9082 44.7123 44.1845 45.936 44.024L47.4521 43.8266C47.7839 43.7729 48.119 43.7412 48.455 43.7319Z" fill="#3E6177"/>
<path d="M56.0279 40.9128C54.9975 40.9128 53.9888 40.6168 53.1219 40.06L52.277 39.523C51.6787 39.1428 50.9665 38.9836 50.2633 39.0729L49.2447 39.1992C47.988 39.3628 46.7138 39.0779 45.6465 38.3947C44.5791 37.7115 43.7868 36.6738 43.409 35.4641L43.109 34.5086C42.8964 33.8307 42.4519 33.2492 41.8534 32.8661L41.0085 32.3292C39.9483 31.6408 39.1641 30.6015 38.7931 29.3931C38.422 28.1848 38.4879 26.8844 38.979 25.7197L39.366 24.7958C39.6382 24.1411 39.6717 23.4117 39.4607 22.7348L39.1607 21.7793C38.7809 20.5704 38.8395 19.2664 39.3263 18.0965C39.813 16.9266 40.6967 15.9658 41.8218 15.383L42.7141 14.925C43.3442 14.5965 43.8389 14.0571 44.1118 13.401L44.5067 12.4692C44.9969 11.3034 45.8824 10.3477 47.0074 9.77001C48.1324 9.19233 49.4251 9.02964 50.6581 9.31052L51.6373 9.53163C52.332 9.68649 53.059 9.59142 53.6905 9.26314L54.5433 8.80514C55.6675 8.22149 56.9614 8.05276 58.1976 8.32861C59.4339 8.60445 60.5334 9.30722 61.3028 10.3134L61.9108 11.1031C62.3439 11.6674 62.9617 12.0615 63.656 12.2165L64.6352 12.4376C65.8764 12.7138 66.9798 13.4203 67.7502 14.4319C68.5205 15.4436 68.908 16.6953 68.8441 17.9652L68.7967 18.9681C68.7643 19.678 68.9823 20.3767 69.4126 20.9422L70.0207 21.7319C70.7918 22.7387 71.183 23.9853 71.1252 25.2522C71.0674 26.519 70.5644 27.7249 69.7048 28.6572L69.0257 29.3916C68.5461 29.9161 68.2666 30.5926 68.236 31.3026L68.1966 32.2502C68.1401 33.5166 67.6387 34.7224 66.7807 35.6555C65.9227 36.5886 64.7631 37.1891 63.506 37.3514L62.511 37.4778C61.8071 37.5713 61.1585 37.9096 60.679 38.4333L59.9999 39.1677C59.495 39.7181 58.8812 40.1575 58.1974 40.4579C57.5136 40.7583 56.7747 40.9132 56.0279 40.9128ZM50.6503 36.6802C51.6804 36.6816 52.6887 36.9775 53.5562 37.5331L54.4011 38.07C54.9991 38.4545 55.7136 38.6154 56.4187 38.5244C57.1237 38.4333 57.774 38.0962 58.2547 37.5725L58.9338 36.8382C59.7929 35.905 60.9531 35.304 62.2109 35.1404L63.2059 35.014C63.9118 34.9214 64.5622 34.582 65.042 34.056C65.5218 33.5299 65.8001 32.8511 65.8276 32.1397L65.8749 31.1368C65.9373 29.8798 66.4374 28.6842 67.2884 27.757L67.9675 27.0226C68.4481 26.5001 68.729 25.8249 68.7608 25.1157C68.7925 24.4065 68.5732 23.7088 68.1413 23.1454L67.5332 22.3557C66.762 21.3484 66.3705 20.1013 66.4277 18.8338L66.4751 17.831C66.5083 17.1195 66.2887 16.4192 65.8551 15.8541C65.4215 15.289 64.8019 14.8955 64.1061 14.7434L63.1269 14.5223C61.8911 14.2435 60.7926 13.5391 60.0235 12.5323L59.4155 11.7427C58.9844 11.1781 58.3678 10.7837 57.6744 10.6291C56.981 10.4746 56.2553 10.5697 55.6251 10.8977L54.7723 11.3321C53.6471 11.9145 52.3527 12.0823 51.1162 11.8059L50.137 11.5847C49.4438 11.4296 48.7181 11.5234 48.0871 11.8497C47.4562 12.176 46.9602 12.714 46.6861 13.3694L46.2755 14.3328C45.7883 15.503 44.905 16.4646 43.7802 17.0492L42.9274 17.4914C42.2963 17.8176 41.8005 18.356 41.5275 19.0119C41.2545 19.6677 41.2217 20.3988 41.4349 21.0765L41.735 22.032C42.1126 23.2401 42.0539 24.5425 41.5691 25.7118L41.1822 26.6357C40.909 27.2909 40.8756 28.0215 41.0879 28.699C41.3002 29.3764 41.7447 29.9572 42.343 30.3392L43.1879 30.8762C44.2562 31.5592 45.0501 32.5963 45.4306 33.8058L45.7307 34.7613C45.9435 35.4382 46.3876 36.0187 46.9853 36.4013C47.5829 36.7838 48.296 36.9441 48.9999 36.8539L49.9948 36.7276C50.2121 36.6984 50.431 36.6826 50.6503 36.6802Z" fill="#3E6177"/>
<path d="M24.4731 68.1561C23.4048 68.1561 22.3605 67.8393 21.4723 67.2458C20.584 66.6523 19.8917 65.8088 19.4829 64.8218C19.0741 63.8348 18.9672 62.7488 19.1756 61.7011C19.384 60.6533 19.8984 59.6909 20.6538 58.9355C21.4092 58.1801 22.3716 57.6657 23.4193 57.4573C24.4671 57.2489 25.5531 57.3559 26.5401 57.7647C27.527 58.1735 28.3706 58.8658 28.9641 59.754C29.5576 60.6422 29.8744 61.6865 29.8744 62.7548C29.8723 64.1867 29.3025 65.5593 28.2901 66.5718C27.2776 67.5843 25.9049 68.154 24.4731 68.1561ZM24.4731 59.7225C23.8733 59.7225 23.2871 59.9003 22.7884 60.2335C22.2898 60.5667 21.9011 61.0403 21.6716 61.5944C21.4421 62.1485 21.382 62.7582 21.499 63.3464C21.616 63.9346 21.9048 64.4749 22.3289 64.899C22.753 65.3231 23.2933 65.6118 23.8815 65.7288C24.4697 65.8458 25.0794 65.7858 25.6335 65.5563C26.1876 65.3268 26.6611 64.9381 26.9943 64.4395C27.3275 63.9408 27.5054 63.3545 27.5054 62.7548C27.5033 61.952 27.1829 61.1827 26.6144 60.6158C26.046 60.0488 25.2759 59.7304 24.4731 59.7304V59.7225Z" fill="#3E6177"/>
<path d="M49.9792 79.1718C51.2614 79.1718 52.3008 78.1324 52.3008 76.8502C52.3008 75.568 51.2614 74.5286 49.9792 74.5286C48.697 74.5286 47.6576 75.568 47.6576 76.8502C47.6576 78.1324 48.697 79.1718 49.9792 79.1718Z" fill="#F5A8A0"/>
<path d="M33.9568 6.65725C35.239 6.65725 36.2784 5.61783 36.2784 4.33565C36.2784 3.05346 35.239 2.01404 33.9568 2.01404C32.6746 2.01404 31.6352 3.05346 31.6352 4.33565C31.6352 5.61783 32.6746 6.65725 33.9568 6.65725Z" fill="#F5A8A0"/>
<path d="M81.1787 16.7729C82.4609 16.7729 83.5003 15.7334 83.5003 14.4512C83.5003 13.1691 82.4609 12.1296 81.1787 12.1296C79.8965 12.1296 78.8571 13.1691 78.8571 14.4512C78.8571 15.7334 79.8965 16.7729 81.1787 16.7729Z" fill="#D5DFEB"/>
<g opacity="0.3">
<path opacity="0.3" d="M55.2278 16.3761L47.2181 24.8106L48.9359 26.4419L56.9457 18.0074L55.2278 16.3761Z" fill="#3E6177"/>
<path opacity="0.3" d="M57.7554 20.6004L52.6938 26.0837L54.4345 27.6905L59.4961 22.2073L57.7554 20.6004Z" fill="#3E6177"/>
</g>
<path d="M47.7224 49.0641L42.7911 59.7903L44.2261 60.45L49.1573 49.7238L47.7224 49.0641Z" fill="white"/>
<path d="M42.09 61.3218L39.9757 65.9208L41.4107 66.5805L43.525 61.9815L42.09 61.3218Z" fill="white"/>
<path d="M39.2703 67.4374L38.5639 68.9725L39.9986 69.6328L40.705 68.0976L39.2703 67.4374Z" fill="white"/>
<path d="M81.084 69.6802H79.5046V79.701H81.084V69.6802Z" fill="white"/>
<path d="M81.084 81.1304H79.5046V85.4261H81.084V81.1304Z" fill="white"/>
<path d="M81.084 86.8552H79.5046V88.2845H81.084V86.8552Z" fill="white"/>
<path d="M78.9519 88.8215C90.3651 88.8215 99.6174 79.5693 99.6174 68.1561C99.6174 56.7428 90.3651 47.4906 78.9519 47.4906C67.5387 47.4906 58.2864 56.7428 58.2864 68.1561C58.2864 79.5693 67.5387 88.8215 78.9519 88.8215Z" fill="white"/>
<path d="M79.6704 84.9207C88.9292 84.9207 96.435 77.4149 96.435 68.1561C96.435 58.8973 88.9292 51.3916 79.6704 51.3916C70.4116 51.3916 62.9059 58.8973 62.9059 68.1561C62.9059 77.4149 70.4116 84.9207 79.6704 84.9207Z" fill="#F5A8A0"/>
<path d="M78.9518 86.1051C75.4018 86.1051 71.9315 85.0524 68.9798 83.0801C66.0281 81.1079 63.7276 78.3046 62.369 75.0249C61.0105 71.7451 60.6551 68.1362 61.3476 64.6544C62.0402 61.1726 63.7497 57.9744 66.2599 55.4642C68.7701 52.954 71.9683 51.2445 75.4501 50.5519C78.9319 49.8594 82.5408 50.2148 85.8206 51.5733C89.1003 52.9318 91.9036 55.2324 93.8759 58.1841C95.8481 61.1358 96.9008 64.6061 96.9008 68.1561C96.8945 72.9145 95.0015 77.4763 91.6367 80.841C88.272 84.2058 83.7102 86.0988 78.9518 86.1051ZM78.9518 52.5681C75.8703 52.5681 72.8581 53.4819 70.296 55.1938C67.7339 56.9058 65.7369 59.3391 64.5577 62.1859C63.3785 65.0328 63.0699 68.1655 63.6711 71.1877C64.2723 74.2099 65.7561 76.986 67.935 79.1649C70.1139 81.3438 72.89 82.8277 75.9123 83.4288C78.9345 84.03 82.0671 83.7215 84.914 82.5423C87.7609 81.363 90.1942 79.3661 91.9061 76.804C93.6181 74.2419 94.5318 71.2296 94.5318 68.1482C94.5235 64.0194 92.8791 60.0622 89.9588 57.1434C87.0386 54.2247 83.0806 52.5823 78.9518 52.576V52.5681Z" fill="#3E6177"/>
<path d="M77.4357 75.6422C77.1246 75.6414 76.8214 75.5449 76.567 75.3658L70.5103 71.1253C70.2527 70.9452 70.0772 70.6702 70.0224 70.3607C69.9676 70.0512 70.038 69.7326 70.2181 69.475C70.3983 69.2174 70.6733 69.0419 70.9828 68.9871C71.2923 68.9323 71.6109 69.0027 71.8685 69.1828L77.2461 72.9495L86.0351 61.2309C86.1284 61.1064 86.2453 61.0016 86.3792 60.9223C86.513 60.8431 86.6612 60.791 86.8152 60.769C86.9691 60.747 87.126 60.7555 87.2766 60.7941C87.4273 60.8327 87.5689 60.9006 87.6934 60.994C87.8178 61.0873 87.9226 61.2042 88.0019 61.3381C88.0812 61.4719 88.1333 61.6201 88.1553 61.7741C88.1773 61.928 88.1687 62.0849 88.1301 62.2355C88.0915 62.3862 88.0236 62.5278 87.9303 62.6523L78.6517 75.0263C78.5112 75.2168 78.328 75.3717 78.1168 75.4786C77.9057 75.5856 77.6724 75.6416 77.4357 75.6422Z" fill="white"/>
</svg>
