<svg width="110" height="110" viewBox="0 0 110 110" fill="none" xmlns="http://www.w3.org/2000/svg">
<g clip-path="url(#clip0)">
<path d="M95.8251 27.2833C96.8632 27.2833 97.7047 26.4418 97.7047 25.4037C97.7047 24.3656 96.8632 23.5241 95.8251 23.5241C94.787 23.5241 93.9455 24.3656 93.9455 25.4037C93.9455 26.4418 94.787 27.2833 95.8251 27.2833Z" fill="#D5DFEB"/>
<path d="M68.1174 13.9505L13.9493 68.1186C6.23889 75.829 6.23889 88.33 13.9493 96.0403C21.6596 103.751 34.1606 103.751 41.871 96.0403L96.0391 41.8722C103.75 34.1618 103.75 21.6608 96.0391 13.9505C88.3288 6.24009 75.8278 6.24008 68.1174 13.9505Z" fill="#FBEAE4"/>
<path d="M89.6019 32.0613V33.6803C89.6667 40.1088 88.9184 46.5197 87.3748 52.7605C87.3195 52.9817 87.2642 53.1949 87.201 53.4081C86.3904 56.427 85.3148 59.3684 83.9868 62.198L83.7262 62.7429C83.2444 63.738 82.7232 64.7252 82.1467 65.6808L82.0677 65.815L81.7597 66.3284C80.2027 68.9243 78.3733 71.3467 76.3025 73.5545C74.7816 75.1701 73.1249 76.6524 71.3508 77.985C69.7713 79.2486 67.6074 80.1015 66.8493 82.1707C66.1971 83.7865 66.1801 85.5893 66.8019 87.2171C67.7891 89.3337 70.5295 89.7522 72.5592 90.1866C74.5888 90.6209 78.1269 91.2922 77.1476 94.1353C76.5868 95.7701 74.7783 95.857 73.2857 95.857H47.0109C45.5498 95.857 43.7097 95.7701 43.149 94.1353C43.0796 93.9411 43.0319 93.7398 43.0069 93.5351C42.6831 91.1659 45.8894 90.5499 47.7453 90.1471C49.775 89.7127 52.4838 89.2942 53.5026 87.1777C53.7806 86.5821 53.9415 85.9386 53.9764 85.2823C54.0173 84.2282 53.8509 83.1764 53.4868 82.1865C52.697 80.1173 50.6042 79.2407 48.9536 78.0008C47.1823 76.6678 45.5283 75.1856 44.0098 73.5703C41.939 71.3625 40.1096 68.9401 38.5527 66.3442L38.1815 65.8229L38.1025 65.6887C37.5418 64.7252 37.0206 63.7459 36.5231 62.7508L36.2624 62.2059C34.9398 59.3757 33.8695 56.4344 33.064 53.416C33.0087 53.2028 32.9455 52.9817 32.8902 52.7684C31.3593 46.5234 30.6242 40.1098 30.7026 33.6803V32.0613C30.7026 31.3032 30.852 30.5525 31.1421 29.8521C31.4322 29.1516 31.8574 28.5152 32.3935 27.9792C32.9296 27.4431 33.566 27.0178 34.2664 26.7277C34.9668 26.4376 35.7175 26.2883 36.4757 26.2883H83.8604C85.386 26.2966 86.8463 26.9085 87.9222 27.9903C88.998 29.072 89.6019 30.5357 89.6019 32.0613Z" fill="white"/>
<path d="M58.8413 93.306C59.3825 93.3072 59.9182 93.1971 60.4151 92.9826C60.912 92.768 61.3595 92.4536 61.7298 92.0589C62.1001 91.6641 62.3853 91.1975 62.5677 90.6879C62.7501 90.1783 62.8257 89.6367 62.79 89.0967C62.5926 86.2141 61.9371 83.1815 63.1691 80.4095C64.488 77.4716 67.3705 75.7263 69.6766 73.6413C80.662 63.7063 83.6788 48.9223 84.2948 34.8095C84.3896 32.5982 83.5524 30.3475 80.9147 30.3475H34.4618C34.1431 30.3442 33.8272 30.4075 33.5343 30.5332C33.2415 30.659 32.9781 30.8446 32.761 31.078C32.544 31.3114 32.378 31.5875 32.2738 31.8888C32.1696 32.19 32.1294 32.5096 32.1558 32.8273C32.6991 41.9154 34.8154 50.8403 38.4106 59.2048C40.0876 63.089 42.2905 66.7243 44.9576 70.0085C47.2636 72.7884 50.4858 74.747 52.9024 77.519C56.1325 81.1834 55.8481 84.7452 55.3664 89.3652C55.169 91.2606 55.8797 93.3139 58.1542 93.3139L58.8413 93.306Z" fill="#D5DFEB"/>
<path d="M72.5039 97.0732H46.2211C44.8865 97.0732 42.1066 97.0732 41.2457 94.5539C41.1501 94.2827 41.0839 94.002 41.0483 93.7167V93.6457C40.6692 90.3287 44.618 89.4758 46.5291 89.0651L47.1925 88.923C48.9695 88.5518 50.9833 88.1332 51.6388 86.7117C51.8473 86.2435 51.9626 85.7392 51.9784 85.227C52.0111 84.3231 51.8662 83.4216 51.5519 82.5734C51.1176 81.3809 49.9724 80.6306 48.7562 79.8409C48.314 79.5566 47.8559 79.2565 47.4216 78.9327C45.5966 77.5591 43.8924 76.032 42.3277 74.368C40.1973 72.1002 38.315 69.6115 36.7126 66.9444L36.4046 66.4152L37.3918 65.736L36.373 66.3442L36.3335 66.2731C35.7728 65.3017 35.2279 64.2908 34.754 63.2562L34.7067 63.1615L34.4855 62.6876C33.1347 59.7988 32.0406 56.7967 31.216 53.7161C31.1528 53.5029 31.0975 53.2739 31.0422 53.0527C29.4506 46.7194 28.6652 40.2104 28.7046 33.6803V32.0613C28.7067 30.2167 29.4404 28.4482 30.7447 27.1438C32.0491 25.8394 33.8176 25.1057 35.6622 25.1036H83.047C84.8916 25.1057 86.6601 25.8394 87.9645 27.1438C89.2689 28.4482 90.0026 30.2167 90.0047 32.0613V33.6803C90.0675 40.21 89.3059 46.7216 87.7381 53.0606C87.6828 53.2818 87.6196 53.5029 87.5643 53.724C86.7348 56.7939 85.6381 59.7853 84.2869 62.6639L84.0263 63.2168C83.5287 64.2513 82.9838 65.2622 82.4468 66.2336L82.0519 66.897C80.4491 69.5639 78.5668 72.0524 76.4368 74.3206C74.872 75.9845 73.1679 77.5116 71.343 78.8853C70.9086 79.2091 70.4506 79.5092 70.0083 79.7935C68.7921 80.5833 67.6391 81.3335 67.2047 82.526C66.6704 83.8484 66.6395 85.3207 67.1178 86.6643C67.7812 88.0858 69.7872 88.5044 71.5641 88.8756L72.2354 89.0177C73.878 89.3731 76.3499 89.9023 77.3371 91.6476C77.5718 92.0831 77.7083 92.5648 77.737 93.0587C77.7656 93.5526 77.6857 94.0467 77.503 94.5065C76.6185 97.0732 73.8386 97.0732 72.5039 97.0732ZM54.1265 94.7039H72.5039C74.2966 94.7039 75.0074 94.467 75.2443 93.7878C75.3136 93.6437 75.3496 93.4858 75.3496 93.3258C75.3496 93.1659 75.3136 93.008 75.2443 92.8638C74.7863 92.0741 72.7803 91.616 71.7062 91.387L71.0508 91.2448C68.9579 90.8105 66.099 90.2103 64.9381 87.7147C64.1788 85.8051 64.1788 83.6774 64.9381 81.7679C65.641 79.8251 67.2521 78.7826 68.6736 77.8192C69.0843 77.5506 69.4634 77.29 69.874 77.0294C71.5914 75.7364 73.1951 74.2991 74.6678 72.7332C76.681 70.5879 78.46 68.2344 79.9749 65.7124L80.3145 65.1358C80.8831 64.1566 81.3964 63.1931 81.894 62.2138L82.1467 61.6925C83.4501 58.9241 84.5072 56.0462 85.3057 53.0922C85.361 52.879 85.4241 52.6737 85.4715 52.4604C86.9883 46.3147 87.7233 40.0022 87.6591 33.6724V32.0613C87.6591 30.8444 87.1757 29.6773 86.3152 28.8168C85.4547 27.9563 84.2876 27.4729 83.0707 27.4729H35.6859C35.0814 27.4698 34.4822 27.5861 33.9227 27.8153C33.3633 28.0445 32.8547 28.382 32.4261 28.8084C31.9975 29.2348 31.6574 29.7417 31.4253 30.2999C31.1933 30.8581 31.0738 31.4567 31.0738 32.0613V33.6803C31.0175 40.0084 31.7605 46.3184 33.2851 52.4604L33.451 53.0922C34.2499 56.0435 35.307 58.9187 36.6099 61.6847L36.8627 62.2217C37.3365 63.1931 37.8498 64.1566 38.379 65.0806L38.7502 65.7124C40.2643 68.2348 42.0434 70.5884 44.0572 72.7332C45.5297 74.2993 47.1335 75.7366 48.851 77.0294C49.2301 77.3137 49.6407 77.5822 50.0514 77.8192C51.473 78.7432 53.084 79.7935 53.7869 81.7284C54.2059 82.8673 54.3964 84.0776 54.3476 85.2901C54.3161 86.1088 54.1257 86.9135 53.7869 87.6594C52.626 90.155 49.7671 90.7552 47.6743 91.1895L47.0188 91.3317C44.6496 91.8371 43.2596 92.3505 43.4018 93.3614V93.4403C43.4195 93.5373 43.446 93.6324 43.4807 93.7246C43.7177 94.4196 44.4363 94.6565 46.2211 94.6565H54.1186L54.1265 94.7039Z" fill="#3E6177"/>
<path d="M66.6124 22.9949C65.7018 22.9949 64.8116 22.7249 64.0545 22.219C63.2973 21.7131 62.7072 20.994 62.3587 20.1527C62.0102 19.3114 61.919 18.3856 62.0967 17.4925C62.2743 16.5994 62.7128 15.779 63.3568 15.135C64.0007 14.4911 64.8211 14.0526 65.7142 13.875C66.6073 13.6973 67.5331 13.7885 68.3744 14.137C69.2157 14.4855 69.9348 15.0756 70.4407 15.8328C70.9466 16.5899 71.2166 17.4801 71.2166 18.3907C71.2145 19.6112 70.7288 20.7811 69.8658 21.6441C69.0028 22.5071 67.8329 22.9929 66.6124 22.9949ZM66.6124 16.1557C66.1704 16.1557 65.7383 16.2868 65.3707 16.5324C65.0032 16.778 64.7167 17.127 64.5476 17.5354C64.3784 17.9438 64.3342 18.3932 64.4204 18.8267C64.5066 19.2603 64.7195 19.6585 65.0321 19.9711C65.3446 20.2837 65.7429 20.4965 66.1764 20.5828C66.6099 20.669 67.0593 20.6247 67.4677 20.4556C67.8761 20.2864 68.2252 19.9999 68.4707 19.6324C68.7163 19.2649 68.8474 18.8328 68.8474 18.3907C68.8474 17.798 68.6119 17.2295 68.1928 16.8103C67.7737 16.3912 67.2052 16.1557 66.6124 16.1557Z" fill="#3E6177"/>
<path d="M35.1015 80.4648C34.1909 80.4648 33.3007 80.1948 32.5436 79.6888C31.7864 79.1829 31.1963 78.4638 30.8478 77.6225C30.4993 76.7812 30.4081 75.8555 30.5858 74.9623C30.7634 74.0692 31.2019 73.2488 31.8459 72.6049C32.4898 71.961 33.3102 71.5225 34.2033 71.3448C35.0964 71.1672 36.0222 71.2583 36.8635 71.6068C37.7048 71.9553 38.4239 72.5454 38.9298 73.3026C39.4357 74.0598 39.7058 74.9499 39.7058 75.8606C39.7037 77.081 39.2179 78.2509 38.3549 79.1139C37.4919 79.977 36.322 80.4627 35.1015 80.4648ZM35.1015 73.6256C34.6595 73.6256 34.2274 73.7567 33.8598 74.0023C33.4923 74.2478 33.2058 74.5969 33.0367 75.0053C32.8675 75.4137 32.8233 75.8631 32.9095 76.2966C32.9957 76.7301 33.2086 77.1284 33.5212 77.4409C33.8337 77.7535 34.232 77.9664 34.6655 78.0526C35.0991 78.1388 35.5484 78.0946 35.9568 77.9254C36.3652 77.7563 36.7143 77.4698 36.9599 77.1023C37.2054 76.7347 37.3365 76.3026 37.3365 75.8606C37.3365 75.5671 37.2787 75.2764 37.1664 75.0053C37.0541 74.7341 36.8894 74.4877 36.6819 74.2802C36.4744 74.0727 36.228 73.908 35.9568 73.7957C35.6857 73.6834 35.395 73.6256 35.1015 73.6256Z" fill="#F5A8A0"/>
<path d="M88.978 71.0668C90.016 71.0668 90.8576 70.2253 90.8576 69.1872C90.8576 68.1491 90.016 67.3076 88.978 67.3076C87.9399 67.3076 87.0984 68.1491 87.0984 69.1872C87.0984 70.2253 87.9399 71.0668 88.978 71.0668Z" fill="#F5A8A0"/>
<path d="M51.3545 20.4441C52.3925 20.4441 53.2341 19.6025 53.2341 18.5645C53.2341 17.5264 52.3925 16.6849 51.3545 16.6849C50.3164 16.6849 49.4749 17.5264 49.4749 18.5645C49.4749 19.6025 50.3164 20.4441 51.3545 20.4441Z" fill="#D5DFEB"/>
<path d="M45.8815 85.4402C46.9196 85.4402 47.7611 84.5986 47.7611 83.5606C47.7611 82.5225 46.9196 81.681 45.8815 81.681C44.8435 81.681 44.002 82.5225 44.002 83.5606C44.002 84.5986 44.8435 85.4402 45.8815 85.4402Z" fill="#D5DFEB"/>
<path d="M72.3934 33.6802H62.8138V35.2597H72.3934V33.6802Z" fill="white"/>
<path d="M77.8663 33.6802H73.7596V35.2597H77.8663V33.6802Z" fill="white"/>
<path d="M80.5988 33.6802H79.2325V35.2597H80.5988V33.6802Z" fill="white"/>
<path d="M84.2079 63.3588H82.9917V60.9896H84.2C86.1027 60.9854 87.9262 60.2277 89.2716 58.8823C90.617 57.5369 91.3746 55.7134 91.3788 53.8108C91.3758 51.4148 92.2753 49.1055 93.8981 47.3427L94.5141 46.6715C95.4596 45.6454 96.0857 44.3661 96.3156 42.9899C96.5456 41.6138 96.3696 40.2004 95.8091 38.9227C95.2486 37.645 94.3278 36.5583 93.1595 35.7955C91.9912 35.0328 90.626 34.627 89.2307 34.6278H88.441V32.2586H89.2307C91.0861 32.2576 92.9016 32.7972 94.4553 33.8114C96.009 34.8257 97.2335 36.2706 97.9791 37.9697C98.7247 39.6687 98.9591 41.5481 98.6537 43.3782C98.3483 45.2083 97.5163 46.9098 96.2594 48.2747L95.6434 48.9459C94.4221 50.2713 93.7453 52.0085 93.748 53.8108C93.7439 56.3404 92.7377 58.7654 90.9497 60.5548C89.1617 62.3443 86.7376 63.3525 84.2079 63.3588Z" fill="#3E6177"/>
<path d="M35.449 63.3588H34.2328C31.7018 63.3546 29.2756 62.3473 27.4859 60.5576C25.6962 58.7679 24.6889 56.3418 24.6848 53.8108C24.6875 52.0085 24.0107 50.2713 22.7894 48.9459L22.1734 48.2747C20.9165 46.9098 20.0845 45.2083 19.7791 43.3782C19.4737 41.5481 19.7081 39.6687 20.4537 37.9697C21.1994 36.2706 22.4238 34.8257 23.9775 33.8114C25.5312 32.7972 27.3467 32.2576 29.2021 32.2586H29.9919V34.6278H29.2021C27.8068 34.627 26.4416 35.0328 25.2733 35.7955C24.105 36.5583 23.1842 37.645 22.6237 38.9227C22.0632 40.2004 21.8872 41.6138 22.1172 42.9899C22.3472 44.3661 22.9732 45.6454 23.9187 46.6715L24.5347 47.3427C26.1582 49.1051 27.0578 51.4146 27.054 53.8108C27.0582 55.7134 27.8158 57.5369 29.1612 58.8823C30.5066 60.2277 32.3301 60.9854 34.2328 60.9896H35.4411L35.449 63.3588Z" fill="#3E6177"/>
<path d="M31.674 54.2293C42.5825 54.2293 51.4255 45.3863 51.4255 34.4778C51.4255 23.5693 42.5825 14.7263 31.674 14.7263C20.7655 14.7263 11.9225 23.5693 11.9225 34.4778C11.9225 45.3863 20.7655 54.2293 31.674 54.2293Z" fill="white"/>
<path d="M32.3611 50.5017C41.2109 50.5017 48.385 43.3276 48.385 34.4778C48.385 25.628 41.2109 18.4539 32.3611 18.4539C23.5113 18.4539 16.3372 25.628 16.3372 34.4778C16.3372 43.3276 23.5113 50.5017 32.3611 50.5017Z" fill="#F5A8A0"/>
<path d="M31.674 51.6864C28.2708 51.6849 24.9445 50.6743 22.1156 48.7824C19.2867 46.8906 17.0823 44.2024 15.781 41.0578C14.4798 37.9132 14.1401 34.4534 14.805 31.1158C15.4699 27.7782 17.1095 24.7126 19.5164 22.3068C21.9234 19.9009 24.9897 18.2627 28.3276 17.5994C31.6655 16.936 35.1252 17.2773 38.2692 18.58C41.4132 19.8827 44.1003 22.0883 45.9909 24.9181C47.8814 27.7479 48.8905 31.0747 48.8905 34.4779C48.8842 39.0413 47.0681 43.4159 43.8405 46.642C40.6129 49.8681 36.2375 51.6822 31.674 51.6864ZM31.674 19.6306C28.7398 19.6322 25.8718 20.5036 23.4327 22.1348C20.9936 23.766 19.0929 26.0836 17.9707 28.7948C16.8485 31.5061 16.5553 34.4891 17.1281 37.3669C17.701 40.2447 19.1141 42.8881 21.189 44.9629C23.2638 47.0378 25.9072 48.4509 28.785 49.0238C31.6628 49.5966 34.6458 49.3034 37.3571 48.1812C40.0683 47.059 42.3859 45.1583 44.0171 42.7192C45.6483 40.2801 46.5197 37.4121 46.5213 34.4779C46.5171 30.5414 44.9515 26.7674 42.168 23.9839C39.3845 21.2004 35.6105 19.6348 31.674 19.6306Z" fill="#3E6177"/>
<path d="M30.0471 41.6804C29.7361 41.6796 29.4328 41.5831 29.1784 41.404L23.1211 37.1631C22.9935 37.0739 22.8847 36.9604 22.801 36.8292C22.7173 36.698 22.6602 36.5516 22.6331 36.3983C22.5783 36.0888 22.6487 35.7701 22.8289 35.5125C23.009 35.2549 23.2841 35.0794 23.5936 35.0246C23.9032 34.9698 24.2218 35.0402 24.4794 35.2203L29.8655 38.9716L38.6475 27.2676C38.8381 27.0152 39.1211 26.8488 39.4344 26.8051C39.7476 26.7614 40.0654 26.844 40.3178 27.0346C40.5702 27.2252 40.7365 27.5082 40.7802 27.8215C40.8239 28.1347 40.7413 28.4525 40.5507 28.7049L31.2633 41.0644C31.1228 41.2549 30.9396 41.4098 30.7284 41.5168C30.5172 41.6238 30.2839 41.6798 30.0471 41.6804Z" fill="white"/>
</g>
<defs>
<clipPath id="clip0">
<rect width="110" height="110" fill="white"/>
</clipPath>
</defs>
</svg>
