<svg width="28" height="28" viewBox="0 0 28 28" fill="none" xmlns="http://www.w3.org/2000/svg">
<path d="M0.687225 9.68765L13.0475 16.8291C13.2562 16.9497 13.4931 17.0131 13.7341 17.0131C13.9752 17.0131 14.212 16.9497 14.4208 16.8291L26.7811 9.68765C26.9886 9.56781 27.1612 9.39575 27.2817 9.18855C27.4022 8.98135 27.4663 8.74623 27.4677 8.50656C27.4687 8.26456 27.4057 8.0266 27.2851 7.81678C27.1645 7.60696 26.9907 7.43273 26.7811 7.31174L14.4208 0.183995C14.212 0.063458 13.9752 0 13.7341 0C13.4931 0 13.2562 0.063458 13.0475 0.183995L0.687225 7.31174C0.477644 7.43273 0.303757 7.60696 0.183172 7.81678C0.0625863 8.0266 -0.000415931 8.26456 0.000544827 8.50656C0.00199148 8.74623 0.066135 8.98135 0.1866 9.18855C0.307066 9.39575 0.479658 9.56781 0.687225 9.68765ZM25.4077 12.8601L13.7341 19.4934L2.06059 12.8052C1.90384 12.7144 1.73068 12.6555 1.55107 12.6319C1.37146 12.6083 1.18896 12.6204 1.01408 12.6677C0.839196 12.7149 0.675384 12.7963 0.532078 12.9071C0.388772 13.0179 0.268803 13.1559 0.179082 13.3133C3.34233e-05 13.6287 -0.0470265 14.002 0.0481705 14.3519C0.143368 14.7019 0.373094 14.9999 0.687225 15.1811L13.0475 22.3226C13.2562 22.4431 13.4931 22.5066 13.7341 22.5066C13.9752 22.5066 14.212 22.4431 14.4208 22.3226L26.7811 15.1811C27.0952 14.9999 27.3249 14.7019 27.4201 14.3519C27.5153 14.002 27.4683 13.6287 27.2892 13.3133C27.1995 13.1559 27.0795 13.0179 26.9362 12.9071C26.7929 12.7963 26.6291 12.7149 26.4542 12.6677C26.2793 12.6204 26.0968 12.6083 25.9172 12.6319C25.7376 12.6555 25.5645 12.7144 25.4077 12.8052V12.8601ZM25.4077 18.3535L13.7341 24.9869L2.06059 18.2986C1.90384 18.2078 1.73068 18.1489 1.55107 18.1253C1.37146 18.1017 1.18896 18.1139 1.01408 18.1611C0.839196 18.2083 0.675384 18.2897 0.532078 18.4005C0.388772 18.5113 0.268803 18.6494 0.179082 18.8068C3.34233e-05 19.1221 -0.0470265 19.4955 0.0481705 19.8454C0.143368 20.1953 0.373094 20.4934 0.687225 20.6745L13.0475 27.816C13.2562 27.9365 13.4931 28 13.7341 28C13.9752 28 14.212 27.9365 14.4208 27.816L26.7811 20.6745C27.0952 20.4934 27.3249 20.1953 27.4201 19.8454C27.5153 19.4955 27.4683 19.1221 27.2892 18.8068C27.1995 18.6494 27.0795 18.5113 26.9362 18.4005C26.7929 18.2897 26.6291 18.2083 26.4542 18.1611C26.2793 18.1139 26.0968 18.1017 25.9172 18.1253C25.7376 18.1489 25.5645 18.2078 25.4077 18.2986V18.3535Z" fill="#6563FF"/>
</svg>
