<svg width="45" height="18" viewBox="0 0 45 18" fill="none" xmlns="http://www.w3.org/2000/svg">
<path d="M8.71352 17.7249V4.69434H13.2577V1.33163H0V4.69434H4.5442V17.7249H8.71352Z" fill="#222222"/>
<path d="M14.2802 17.7249H18.3018V11.0449C18.3018 9.27263 19.2561 8.29563 20.9829 8.29563C21.4373 8.29563 21.9372 8.37515 22.278 8.52283V5.06924C22.0053 4.97835 21.6304 4.91019 21.2555 4.91019C19.7559 4.91019 18.7221 5.77359 18.2677 7.45495H18.1882V5.0806H14.2802V17.7249Z" fill="#222222"/>
<path d="M28.4695 15.1006C27.4356 15.1006 26.7654 14.6007 26.7654 13.7941C26.7654 13.0216 27.3902 12.5331 28.5376 12.4536L30.8665 12.2945V13.1693C30.8665 14.3281 29.7646 15.1006 28.4695 15.1006ZM27.0494 17.8953C28.5831 17.8953 30.1281 17.1795 30.8097 15.9072H30.8892V17.7249H34.7973V9.06814C34.7973 6.52338 32.5592 4.80795 29.1852 4.80795C25.7656 4.80795 23.5276 6.50066 23.4254 9.05678H27.0494C27.163 8.2729 27.9014 7.69352 28.992 7.69352C30.1281 7.69352 30.8665 8.25018 30.8665 9.28399V10.0111L27.9014 10.1928C24.5955 10.3973 22.7778 11.7038 22.7778 14.0668C22.7778 16.3389 24.675 17.8953 27.0494 17.8953Z" fill="#222222"/>
<path d="M37.8305 17.7249H41.8521V8.05705H44.0674V5.0806H41.7499V4.28536C41.7499 3.54693 42.1589 3.21747 43.1359 3.21747C43.5449 3.21747 43.8175 3.25156 44.0561 3.297V0.638638C43.5449 0.570474 42.9427 0.513672 42.2838 0.513672C39.0574 0.513672 37.8305 1.50204 37.8305 3.97863V5.0806H36.1378V8.05705H37.8305V17.7249Z" fill="#222222"/>
</svg>
