<svg width="92" height="18" viewBox="0 0 92 18" fill="none" xmlns="http://www.w3.org/2000/svg">
<path d="M8.26903 17.8953C11.4386 17.8953 13.2904 15.4982 13.2904 11.397C13.2904 7.2959 11.4272 4.91019 8.23494 4.91019C6.42862 4.91019 5.054 5.79631 4.40645 7.2959H4.31557V0.513672H0.293945V17.7249H4.29285V15.555H4.37237C5.01992 17.0205 6.41726 17.8953 8.26903 17.8953ZM6.74671 8.07978C8.21222 8.07978 9.17786 9.38624 9.17786 11.397C9.17786 13.4306 8.22358 14.7257 6.74671 14.7257C5.25848 14.7257 4.30421 13.4306 4.30421 11.4084C4.30421 9.3976 5.26984 8.07978 6.74671 8.07978Z" fill="#222222"/>
<path d="M20.118 15.1006C19.0842 15.1006 18.414 14.6007 18.414 13.7941C18.414 13.0216 19.0388 12.5331 20.1862 12.4536L22.5151 12.2945V13.1693C22.5151 14.3281 21.4131 15.1006 20.118 15.1006ZM18.698 17.8953C20.2316 17.8953 21.7767 17.1795 22.4583 15.9072H22.5378V17.7249H26.4459V9.06814C26.4459 6.52338 24.2078 4.80795 20.8338 4.80795C17.4142 4.80795 15.1762 6.50066 15.074 9.05678H18.698C18.8116 8.2729 19.55 7.69352 20.6406 7.69352C21.7767 7.69352 22.5151 8.25018 22.5151 9.28399V10.0111L19.55 10.1928C16.2441 10.3973 14.4264 11.7038 14.4264 14.0668C14.4264 16.3389 16.3236 17.8953 18.698 17.8953Z" fill="#222222"/>
<path d="M28.468 17.7249H32.4896V10.5905C32.4896 9.15903 33.4212 8.14794 34.7845 8.14794C36.1705 8.14794 36.9657 9.0227 36.9657 10.4882V17.7249H40.9987V9.62481C40.9987 6.63699 39.306 4.86475 36.4885 4.86475C34.5573 4.86475 33.1372 5.76223 32.4556 7.45495H32.376V5.0806H28.468V17.7249Z" fill="#222222"/>
<path d="M42.964 17.7249H46.9857V10.5905C46.9857 9.15903 47.9172 8.14794 49.2805 8.14794C50.6665 8.14794 51.4617 9.0227 51.4617 10.4882V17.7249H55.4947V9.62481C55.4947 6.63699 53.802 4.86475 50.9846 4.86475C49.0533 4.86475 47.6332 5.76223 46.9516 7.45495H46.8721V5.0806H42.964V17.7249Z" fill="#222222"/>
<path d="M63.3903 7.6708C64.7308 7.6708 65.651 8.57964 65.7305 9.97698H61.0273C61.1295 8.62508 62.0952 7.6708 63.3903 7.6708ZM65.8214 13.7487C65.5147 14.6121 64.6399 15.1347 63.5266 15.1347C62.0156 15.1347 60.9818 14.0781 60.9818 12.5331V12.2832H69.5363V11.1358C69.5363 7.28454 67.1051 4.80795 63.3335 4.80795C59.4936 4.80795 57.0624 7.38678 57.0624 11.4652C57.0624 15.5323 59.4709 17.9975 63.4698 17.9975C66.7416 17.9975 69.0705 16.3389 69.4568 13.7487H65.8214Z" fill="#222222"/>
<path d="M71.1609 17.7249H75.1825V11.0449C75.1825 9.27263 76.1368 8.29563 77.8636 8.29563C78.318 8.29563 78.8178 8.37515 79.1587 8.52283V5.06924C78.886 4.97835 78.5111 4.91019 78.1362 4.91019C76.6366 4.91019 75.6028 5.77359 75.1484 7.45495H75.0689V5.0806H71.1609V17.7249Z" fill="#222222"/>
<path d="M80.2038 8.90909C80.2038 10.829 81.5103 12.1241 83.9755 12.6467L86.3499 13.1466C87.3609 13.3624 87.7472 13.6578 87.7472 14.1804C87.7472 14.862 87.0656 15.271 85.9409 15.271C84.7253 15.271 83.9414 14.7143 83.8165 13.76H79.9085C80.0789 16.3275 82.226 17.9975 85.8614 17.9975C89.3718 17.9975 91.7347 16.3275 91.7347 13.726C91.7347 11.8174 90.6669 10.7949 88.1448 10.261L85.5319 9.71569C84.5549 9.5112 84.0778 9.15902 84.0778 8.6478C84.0778 7.97753 84.748 7.53447 85.7705 7.53447C86.9292 7.53447 87.679 8.11386 87.7131 9.0227H91.3939C91.3712 6.4325 89.2241 4.80795 85.8159 4.80795C82.3737 4.80795 80.2038 6.39842 80.2038 8.90909Z" fill="#222222"/>
</svg>
