<svg width="100" height="100" viewBox="0 0 100 100" fill="none" xmlns="http://www.w3.org/2000/svg">
<g clip-path="url(#clip0)">
<path opacity="0.8" d="M77.6257 25.3668L53.0454 41.1751C52.689 41.405 52.2903 41.5632 51.872 41.6408C51.4537 41.7183 51.0241 41.7136 50.6076 41.627C49.7666 41.4521 49.0303 40.954 48.5607 40.2424C48.3281 39.89 48.1681 39.4958 48.0897 39.0823C48.0113 38.6688 48.016 38.2441 48.1036 37.8324C48.2805 37.0009 48.7843 36.273 49.5042 35.8088L74.0967 20.061C74.4532 19.8319 74.8517 19.6745 75.2697 19.5977C75.6877 19.5209 76.1169 19.5263 76.5327 19.6134C76.9486 19.7006 77.343 19.8679 77.6935 20.1058C78.044 20.3437 78.3436 20.6474 78.5754 20.9998C78.8071 21.3522 78.9663 21.7462 79.044 22.1594C79.1217 22.5726 79.1163 22.9969 79.0281 23.408C78.9399 23.8192 78.7707 24.2091 78.5301 24.5556C78.2894 24.9021 77.9821 25.1983 77.6257 25.4274V25.3668Z" fill="#389BF3"/>
<path opacity="0.8" d="M44.7617 46.4931L28.3177 57.032C27.5979 57.4946 26.7216 57.6556 25.8817 57.4796C25.0418 57.3035 24.307 56.8048 23.8391 56.0932C23.3711 55.3816 23.2082 54.5153 23.3863 53.685C23.5644 52.8546 24.0689 52.1283 24.7887 51.6656L41.2328 41.1025C41.5892 40.8734 41.9878 40.716 42.4057 40.6392C42.8237 40.5624 43.2529 40.5678 43.6688 40.6549C44.0846 40.7421 44.4791 40.9094 44.8295 41.1473C45.18 41.3852 45.4797 41.689 45.7114 42.0413C45.9431 42.3937 46.1024 42.7877 46.18 43.2009C46.2577 43.6141 46.2523 44.0384 46.1641 44.4495C46.0759 44.8607 45.9067 45.2506 45.6661 45.5971C45.4255 45.9436 45.1182 46.2398 44.7617 46.4689V46.4931Z" fill="#FF9D23"/>
<path d="M66.0829 21.6479L41.4903 37.4563C40.7715 37.8648 39.9215 37.9849 39.1157 37.7917C38.3099 37.5986 37.6099 37.107 37.1602 36.4184C36.7105 35.7297 36.5455 34.8967 36.6991 34.0912C36.8527 33.2858 37.3133 32.5694 37.9858 32.0899L62.5784 16.3421C62.9348 16.1131 63.3334 15.9556 63.7514 15.8788C64.1693 15.802 64.5985 15.8074 65.0144 15.8946C65.4302 15.9817 65.8247 16.149 66.1752 16.3869C66.5256 16.6248 66.8253 16.9286 67.057 17.2809C67.2887 17.6333 67.448 18.0273 67.5256 18.4405C67.6033 18.8537 67.5979 19.278 67.5097 19.6891C67.4216 20.1003 67.2523 20.4902 67.0117 20.8367C66.7711 21.1832 66.4638 21.4794 66.1074 21.7085L66.0829 21.6479Z" fill="#AA7DFF"/>
<path d="M33.2193 42.7742L16.7752 53.3979C16.4188 53.6269 16.0202 53.7844 15.6022 53.8612C15.1843 53.938 14.7551 53.9326 14.3392 53.8454C13.9233 53.7583 13.5289 53.591 13.1784 53.3531C12.8279 53.1152 12.5283 52.8114 12.2966 52.4591C12.0649 52.1067 11.9056 51.7127 11.8279 51.2995C11.7503 50.8863 11.7557 50.462 11.8438 50.0509C11.932 49.6397 12.1013 49.2498 12.3419 48.9033C12.5825 48.5568 12.8898 48.2606 13.2462 48.0315L29.6903 37.4078C30.4101 36.9452 31.2864 36.7842 32.1263 36.9602C32.9662 37.1363 33.7009 37.635 34.1689 38.3466C34.6369 39.0582 34.7997 39.9245 34.6216 40.7548C34.4435 41.5852 33.9391 42.3115 33.2193 42.7742Z" fill="#389BF3"/>
<path d="M73.5209 16.8872L73.3738 16.9841C73.0174 17.2132 72.6188 17.3706 72.2009 17.4474C71.7829 17.5242 71.3537 17.5189 70.9378 17.4317C70.522 17.3445 70.1275 17.1772 69.7771 16.9394C69.4266 16.7015 69.1269 16.3977 68.8952 16.0453C68.6635 15.693 68.5042 15.2989 68.4266 14.8857C68.3489 14.4725 68.3543 14.0483 68.4425 13.6371C68.5307 13.226 68.6999 12.836 68.9405 12.4896C69.1811 12.1431 69.4884 11.8468 69.8449 11.6178L69.9674 11.5209C70.3238 11.2902 70.7227 11.1312 71.1413 11.0529C71.5599 10.9747 71.9899 10.9787 72.407 11.0647C72.824 11.1508 73.2198 11.3172 73.5717 11.5545C73.9237 11.7917 74.2249 12.0952 74.4583 12.4476C74.6916 12.7999 74.8524 13.1943 74.9316 13.6081C75.0107 14.0219 75.0067 14.4471 74.9197 14.8593C74.8326 15.2716 74.6643 15.6629 74.4243 16.0108C74.1843 16.3588 73.8773 16.6566 73.5209 16.8872Z" fill="#FF9D23"/>
<path opacity="0.5" d="M76.3755 37.3109L51.7952 53.1193C51.074 53.554 50.2099 53.6938 49.3861 53.5091C48.5624 53.3243 47.8439 52.8295 47.3832 52.1297C46.9224 51.4299 46.7556 50.5801 46.9181 49.7607C47.0807 48.9412 47.5599 48.2167 48.2539 47.7408L72.8465 31.993C73.2029 31.7639 73.6015 31.6065 74.0195 31.5297C74.4374 31.4529 74.8666 31.4583 75.2825 31.5454C75.6984 31.6326 76.0928 31.7999 76.4433 32.0378C76.7938 32.2757 77.0934 32.5795 77.3251 32.9318C77.5568 33.2842 77.7161 33.6782 77.7938 34.0914C77.8714 34.5046 77.866 34.9289 77.7779 35.34C77.6897 35.7512 77.5204 36.1411 77.2798 36.4876C77.0392 36.8341 76.7319 37.1303 76.3755 37.3594V37.3109Z" fill="#389BF3"/>
<path opacity="0.5" d="M43.5122 58.4372L27.0682 69.0004C26.3483 69.463 25.4721 69.624 24.6322 69.4479C23.7923 69.2719 23.0575 68.7732 22.5896 68.0615C22.1216 67.3499 21.9587 66.4837 22.1368 65.6533C22.3149 64.823 22.8194 64.0966 23.5392 63.634L39.9833 53.0588C40.3399 52.802 40.7457 52.6197 41.176 52.5232C41.6062 52.4266 42.0519 52.4177 42.4857 52.4971C42.9195 52.5764 43.3324 52.7423 43.6993 52.9847C44.0661 53.227 44.3791 53.5408 44.6192 53.9067C44.8593 54.2726 45.0214 54.6831 45.0957 55.113C45.17 55.5429 45.1549 55.9833 45.0513 56.4073C44.9477 56.8313 44.7578 57.2299 44.4932 57.5789C44.2286 57.928 43.8948 58.22 43.5122 58.4372Z" fill="#AA7DFF"/>
<path opacity="0.5" d="M83.8011 32.5501L83.6418 32.647C82.9214 33.0561 82.0697 33.1767 81.2621 32.9838C80.4545 32.791 79.7524 32.2994 79.3003 31.6103C78.8481 30.9213 78.6804 30.0871 78.8315 29.2794C78.9827 28.4718 79.4412 27.7521 80.1128 27.2686L80.2599 27.1717C80.981 26.7369 81.8452 26.5971 82.6689 26.7818C83.4926 26.9666 84.2111 27.4614 84.6719 28.1612C85.1326 28.8611 85.2994 29.7109 85.1369 30.5303C84.9743 31.3497 84.4951 32.0742 83.8011 32.5501Z" fill="#FF9D23"/>
<path d="M10.4526 75.675C10.6321 65.7572 14.7434 56.3056 21.9016 49.3546C29.0597 42.4036 38.6924 38.5089 48.7261 38.5089C58.7599 38.5089 68.3926 42.4036 75.5507 49.3546C82.7088 56.3056 86.8201 65.7572 86.9996 75.675" stroke="#732E54" stroke-width="2" stroke-miterlimit="10"/>
<path d="M58.3511 48.1284V29.4006H39.4073V48.1284H58.3511Z" fill="url(#paint0_linear)"/>
<path d="M58.731 48.504V29.7762H39.7872V48.504H58.731Z" stroke="#732E54" stroke-width="2" stroke-miterlimit="10"/>
<path d="M39.4437 38.9463H20.0588H11.751" stroke="#732E54" stroke-width="2" stroke-miterlimit="10"/>
<path d="M59.1108 38.9463H86.8158" stroke="#732E54" stroke-width="2" stroke-miterlimit="10"/>
<path d="M87.5142 86.2865C90.8032 86.2865 93.4694 83.6506 93.4694 80.3992C93.4694 77.1478 90.8032 74.512 87.5142 74.512C84.2253 74.512 81.5591 77.1478 81.5591 80.3992C81.5591 83.6506 84.2253 86.2865 87.5142 86.2865Z" fill="url(#paint1_linear)"/>
<path d="M87.2569 86.5409C90.5458 86.5409 93.2121 83.905 93.2121 80.6536C93.2121 77.4022 90.5458 74.7664 87.2569 74.7664C83.968 74.7664 81.3018 77.4022 81.3018 80.6536C81.3018 83.905 83.968 86.5409 87.2569 86.5409Z" stroke="#732E54" stroke-width="2" stroke-miterlimit="10"/>
<path d="M6.92341 44.9668C10.2124 44.9668 12.8786 42.3309 12.8786 39.0795C12.8786 35.8281 10.2124 33.1923 6.92341 33.1923C3.63447 33.1923 0.968262 35.8281 0.968262 39.0795C0.968262 42.3309 3.63447 44.9668 6.92341 44.9668Z" fill="url(#paint2_linear)"/>
<path d="M7.18074 44.7124C10.4697 44.7124 13.1359 42.0766 13.1359 38.8251C13.1359 35.5737 10.4697 32.9379 7.18074 32.9379C3.8918 32.9379 1.22559 35.5737 1.22559 38.8251C1.22559 42.0766 3.8918 44.7124 7.18074 44.7124Z" stroke="#732E54" stroke-width="2" stroke-miterlimit="10"/>
<path d="M10.9669 86.2865C14.2558 86.2865 16.922 83.6506 16.922 80.3992C16.922 77.1478 14.2558 74.512 10.9669 74.512C7.67793 74.512 5.01172 77.1478 5.01172 80.3992C5.01172 83.6506 7.67793 86.2865 10.9669 86.2865Z" fill="url(#paint3_linear)"/>
<path d="M10.7095 86.5409C13.9985 86.5409 16.6647 83.905 16.6647 80.6536C16.6647 77.4022 13.9985 74.7664 10.7095 74.7664C7.42061 74.7664 4.75439 77.4022 4.75439 80.6536C4.75439 83.905 7.42061 86.5409 10.7095 86.5409Z" stroke="#732E54" stroke-width="2" stroke-miterlimit="10"/>
<path d="M92.5626 44.9668C95.8515 44.9668 98.5177 42.3309 98.5177 39.0795C98.5177 35.8281 95.8515 33.1923 92.5626 33.1923C89.2736 33.1923 86.6074 35.8281 86.6074 39.0795C86.6074 42.3309 89.2736 44.9668 92.5626 44.9668Z" fill="url(#paint4_linear)"/>
<path d="M92.8199 44.7124C96.1088 44.7124 98.7751 42.0766 98.7751 38.8251C98.7751 35.5737 96.1088 32.9379 92.8199 32.9379C89.531 32.9379 86.8647 35.5737 86.8647 38.8251C86.8647 42.0766 89.531 44.7124 92.8199 44.7124Z" stroke="#732E54" stroke-width="2" stroke-miterlimit="10"/>
<path d="M48.8792 44.1067C48.942 44.0011 49.0315 43.9137 49.139 43.8529C49.2464 43.7921 49.3681 43.7601 49.4919 43.7601C49.6157 43.7601 49.7373 43.7921 49.8448 43.8529C49.9523 43.9137 50.0418 44.0011 50.1045 44.1067L61.9536 65.5115L73.2145 85.9352C73.3194 86.1127 73.366 86.318 73.3479 86.5228C73.3299 86.7276 73.248 86.9218 73.1135 87.0786C72.9791 87.2355 72.7987 87.3472 72.5973 87.3984C72.3959 87.4496 72.1834 87.4378 71.9891 87.3646L50.6682 80.4598C50.4496 80.3869 50.2129 80.3869 49.9943 80.4598L28.9919 88.3337C28.8056 88.3896 28.607 88.3914 28.4197 88.339C28.2323 88.2865 28.0641 88.182 27.9351 88.0379C27.8061 87.8937 27.7216 87.716 27.6917 87.5258C27.6619 87.3356 27.6878 87.1409 27.7666 86.9649L38.0962 66.0566L48.8792 44.1067Z" fill="white"/>
<path d="M72.2955 86.4924L50.9746 79.5755C50.756 79.5026 50.5193 79.5026 50.3007 79.5755L29.2861 87.4494C29.0992 87.511 28.898 87.517 28.7077 87.4665C28.5174 87.416 28.3463 87.3113 28.2157 87.1654C28.0851 87.0195 28.0008 86.8389 27.9733 86.646C27.9457 86.4531 27.9761 86.2565 28.0607 86.0805L29.9478 82.2647L50.2394 75.4326C50.4643 75.3478 50.7129 75.3478 50.9378 75.4326L71.9524 82.2284L73.5209 85.0751C73.6214 85.2524 73.6645 85.4559 73.6444 85.6582C73.6243 85.8605 73.5418 86.0518 73.4082 86.2063C73.2747 86.3608 73.0964 86.4711 72.8974 86.5222C72.6984 86.5734 72.4883 86.563 72.2955 86.4924Z" fill="#CEC1BC"/>
<path d="M49.0873 43.4889C49.15 43.3833 49.2396 43.2959 49.347 43.2351C49.4545 43.1743 49.5762 43.1423 49.7 43.1423C49.8238 43.1423 49.9454 43.1743 50.0529 43.2351C50.1604 43.2959 50.2499 43.3833 50.3126 43.4889L62.1249 64.9301L73.3858 85.3658C73.4907 85.5433 73.5374 85.7486 73.5193 85.9534C73.5012 86.1582 73.4193 86.3524 73.2848 86.5093C73.1504 86.6661 72.97 86.7779 72.7687 86.8291C72.5673 86.8803 72.3548 86.8685 72.1604 86.7953L50.8763 79.8541C50.6587 79.7754 50.4199 79.7754 50.2024 79.8541L29.2 87.728C29.0123 87.7857 28.8116 87.7883 28.6224 87.7355C28.4332 87.6828 28.2635 87.577 28.1338 87.4308C28.0042 87.2847 27.9201 87.1046 27.8919 86.9122C27.8637 86.7199 27.8924 86.5236 27.9747 86.3471L38.3043 65.4388L49.0873 43.4889Z" stroke="#732E54" stroke-width="2" stroke-miterlimit="10"/>
</g>
<defs>
<linearGradient id="paint0_linear" x1="48.8792" y1="29.4006" x2="48.8792" y2="48.1405" gradientUnits="userSpaceOnUse">
<stop offset="0.04" stop-color="#F27B40"/>
<stop offset="1" stop-color="#EC697D"/>
</linearGradient>
<linearGradient id="paint1_linear" x1="-374.69" y1="-957.911" x2="-374.69" y2="-1072.36" gradientUnits="userSpaceOnUse">
<stop offset="0.04" stop-color="#F27B40"/>
<stop offset="1" stop-color="#EC697D"/>
</linearGradient>
<linearGradient id="paint2_linear" x1="-199.84" y1="3435.9" x2="-199.84" y2="3550.23" gradientUnits="userSpaceOnUse">
<stop offset="0.04" stop-color="#F27B40"/>
<stop offset="1" stop-color="#EC697D"/>
</linearGradient>
<linearGradient id="paint3_linear" x1="-1118.73" y1="-882.237" x2="-1118.73" y2="-996.685" gradientUnits="userSpaceOnUse">
<stop offset="0.04" stop-color="#F27B40"/>
<stop offset="1" stop-color="#EC697D"/>
</linearGradient>
<linearGradient id="paint4_linear" x1="-1782.23" y1="3520.56" x2="-1782.23" y2="3634.89" gradientUnits="userSpaceOnUse">
<stop offset="0.04" stop-color="#F27B40"/>
<stop offset="1" stop-color="#EC697D"/>
</linearGradient>
<clipPath id="clip0">
<rect y="11" width="100" height="78" fill="white"/>
</clipPath>
</defs>
</svg>
