<svg width="100" height="100" viewBox="0 0 100 100" fill="none" xmlns="http://www.w3.org/2000/svg">
<g clip-path="url(#clip0)">
<g clip-path="url(#clip1)">
<path opacity="0.8" d="M75.1717 21.6246L46.7295 39.9171C45.897 40.4525 44.8836 40.6388 43.9122 40.435C42.9409 40.2313 42.0911 39.6542 41.5499 38.8308C41.0086 38.0073 40.8203 37.005 41.0263 36.0442C41.2322 35.0833 41.8156 34.2428 42.6482 33.7075L71.0903 15.4851C71.9228 14.9497 72.9362 14.7634 73.9076 14.9672C74.879 15.1709 75.7287 15.7479 76.2699 16.5714C76.8112 17.3948 76.9995 18.3972 76.7935 19.358C76.5876 20.3188 76.0042 21.1594 75.1717 21.6947V21.6246Z" fill="#389BF3"/>
<path opacity="0.8" d="M37.1636 46.0706L18.1455 58.2656C17.7333 58.5307 17.2724 58.7129 16.789 58.8017C16.3056 58.8906 15.8092 58.8844 15.3282 58.7835C14.8473 58.6827 14.3911 58.4891 13.9857 58.2138C13.5804 57.9386 13.2339 57.587 12.9659 57.1793C12.6979 56.7716 12.5137 56.3156 12.4239 55.8375C12.334 55.3593 12.3403 54.8684 12.4423 54.3927C12.5443 53.9169 12.74 53.4657 13.0183 53.0648C13.2965 52.6638 13.6519 52.3211 14.0642 52.056L33.0823 39.8329C33.4945 39.5679 33.9554 39.3857 34.4388 39.2968C34.9222 39.208 35.4186 39.2142 35.8996 39.315C36.3805 39.4159 36.8367 39.6095 37.242 39.8848C37.6474 40.16 37.9939 40.5116 38.2619 40.9193C38.5299 41.327 38.7141 41.783 38.8039 42.2611C38.8938 42.7392 38.8875 43.2302 38.7855 43.7059C38.6835 44.1817 38.4878 44.6329 38.2095 45.0338C37.9312 45.4347 37.5759 45.7775 37.1636 46.0426V46.0706Z" fill="#FF9D23"/>
<path d="M61.8079 17.3213L33.3799 35.6138C32.9677 35.8788 32.5067 36.061 32.0234 36.1499C31.54 36.2387 31.0436 36.2325 30.5626 36.1317C29.5913 35.9279 28.7415 35.3509 28.2003 34.5274C27.659 33.704 27.4707 32.7016 27.6767 31.7408C27.8826 30.78 28.466 29.9395 29.2985 29.4041L57.7265 11.1817C58.1387 10.9166 58.5997 10.7345 59.0831 10.6456C59.5665 10.5567 60.0628 10.5629 60.5438 10.6638C61.0248 10.7647 61.481 10.9583 61.8863 11.2335C62.2916 11.5088 62.6382 11.8603 62.9062 12.268C63.1742 12.6758 63.3583 13.1317 63.4482 13.6098C63.538 14.088 63.5318 14.5789 63.4298 15.0547C63.3278 15.5304 63.1321 15.9816 62.8538 16.3826C62.5755 16.7835 62.2201 17.1263 61.8079 17.3913V17.3213Z" fill="#AA7DFF"/>
<path d="M23.7999 41.7674L4.78175 54.0606C3.93985 54.5959 2.91742 54.7785 1.9394 54.5682C0.961382 54.3579 0.107879 53.7719 -0.433346 52.9392C-0.974571 52.1064 -1.15918 51.0951 -0.94657 50.1278C-0.733957 49.1604 -0.141534 48.3162 0.700371 47.7808L19.7185 35.5578C20.1307 35.2927 20.5917 35.1106 21.075 35.0217C21.5584 34.9328 22.0548 34.939 22.5358 35.0399C23.0167 35.1408 23.4729 35.3344 23.8783 35.6096C24.2836 35.8849 24.6302 36.2364 24.8981 36.6441C25.1661 37.0519 25.3503 37.5078 25.4401 37.9859C25.53 38.4641 25.5237 38.955 25.4217 39.4308C25.3198 39.9065 25.124 40.3577 24.8457 40.7587C24.5675 41.1596 24.2121 41.5024 23.7999 41.7674Z" fill="#389BF3"/>
<path d="M70.3957 11.8125L70.2115 11.9246C69.379 12.46 68.3656 12.6463 67.3942 12.4425C66.4228 12.2388 65.573 11.6617 65.0318 10.8383C64.4906 10.0148 64.3022 9.01246 64.5082 8.05166C64.7142 7.09085 65.2976 6.25033 66.1301 5.71499L66.3143 5.60286C67.1468 5.06752 68.1602 4.88122 69.1316 5.08495C70.103 5.28868 70.9528 5.86574 71.494 6.68919C72.0352 7.51264 72.2236 8.51503 72.0176 9.47583C71.8116 10.4366 71.2282 11.2772 70.3957 11.8125Z" fill="#FF9D23"/>
<path opacity="0.5" d="M73.7257 35.4455L45.2836 53.738C44.4504 54.2114 43.4654 54.3509 42.5314 54.1277C41.5974 53.9046 40.7854 53.3358 40.2625 52.5384C39.7396 51.741 39.5456 50.7758 39.7204 49.8412C39.8952 48.9066 40.4255 48.0739 41.2022 47.5144L69.6444 29.2919C70.4769 28.7566 71.4903 28.5703 72.4617 28.774C73.433 28.9778 74.2828 29.5548 74.824 30.3783C75.3653 31.2017 75.5536 32.2041 75.3476 33.1649C75.1417 34.1257 74.5583 34.9662 73.7257 35.5016V35.4455Z" fill="#389BF3"/>
<path opacity="0.5" d="M35.7183 59.8916L16.7002 72.1147C15.8677 72.65 14.8543 72.8363 13.8829 72.6326C12.9116 72.4288 12.0618 71.8518 11.5206 71.0283C10.9793 70.2049 10.791 69.2025 10.997 68.2417C11.2029 67.2809 11.7864 66.4404 12.6189 65.905L31.5944 53.668C32.4277 53.1946 33.4126 53.0551 34.3466 53.2783C35.2807 53.5014 36.0927 54.0702 36.6156 54.8676C37.1385 55.6649 37.3325 56.6302 37.1577 57.5648C36.9829 58.4994 36.4525 59.3321 35.6758 59.8916H35.7183Z" fill="#AA7DFF"/>
<path opacity="0.5" d="M82.2994 29.9368L82.1293 30.049C81.2961 30.5224 80.3111 30.6618 79.3771 30.4387C78.4431 30.2155 77.6311 29.6467 77.1082 28.8494C76.5853 28.052 76.3913 27.0867 76.5661 26.1522C76.7409 25.2176 77.2712 24.3849 78.0479 23.8253L78.218 23.7132C78.6305 23.416 79.0998 23.2052 79.5974 23.0934C80.095 22.9817 80.6104 22.9714 81.1121 23.0632C81.6139 23.155 82.0914 23.347 82.5157 23.6275C82.9399 23.9079 83.3019 24.2709 83.5796 24.6944C83.8573 25.1178 84.0448 25.5927 84.1307 26.0902C84.2166 26.5877 84.1992 27.0973 84.0794 27.5879C83.9596 28.0785 83.7399 28.5398 83.4339 28.9437C83.1279 29.3475 82.7418 29.6855 82.2994 29.9368Z" fill="#FF9D23"/>
<path d="M23.0488 88.6971L77.694 63.7184" stroke="#732E54" stroke-width="2" stroke-miterlimit="10" stroke-linecap="round"/>
<path d="M63.3808 34.6606H46.9844V88.4589H63.3808V34.6606Z" fill="white"/>
<path d="M88.7197 13.7609H72.2949V93.5891H88.7197V13.7609Z" fill="url(#paint0_linear)"/>
<path d="M89.5551 14.7701H71.2881V94.5984H89.5551V14.7701Z" stroke="#732E54" stroke-width="2" stroke-miterlimit="10"/>
<path d="M63.4232 37.1978H47.0269V93.2668H63.4232V37.1978Z" fill="url(#paint1_linear)"/>
<path d="M64.245 35.9221H45.978V94.5983H64.245V35.9221Z" stroke="#732E54" stroke-width="2" stroke-miterlimit="10"/>
<path d="M37.7729 57.4247H21.2773V94.2901H37.7729V57.4247Z" fill="url(#paint2_linear)"/>
<path d="M38.9491 57.719H20.6821V94.5844H38.9491V57.719Z" stroke="#732E54" stroke-width="2" stroke-miterlimit="10"/>
<path d="M88.847 24.8345C93.7778 24.8345 97.775 20.8808 97.775 16.0036C97.775 11.1264 93.7778 7.17273 88.847 7.17273C83.9162 7.17273 79.9189 11.1264 79.9189 16.0036C79.9189 20.8808 83.9162 24.8345 88.847 24.8345Z" fill="white"/>
<path fill-rule="evenodd" clip-rule="evenodd" d="M98.0443 16.298C98.0922 17.4864 97.8969 18.6721 97.4701 19.7839C97.0434 20.8958 96.394 21.911 95.5609 22.7685C94.7278 23.6261 93.7281 24.3083 92.6219 24.7744C91.5157 25.2404 90.3257 25.4806 89.1233 25.4806C87.9209 25.4806 86.731 25.2404 85.6247 24.7744C84.5185 24.3083 83.5189 23.6261 82.6858 22.7685C81.8527 21.911 81.2033 20.8958 80.7765 19.7839C80.3498 18.6721 80.1545 17.4864 80.2024 16.298C80.1976 15.5303 80.3026 14.7658 80.5142 14.0272C81.0232 15.9046 82.1441 17.5634 83.7032 18.7464C85.2623 19.9295 87.1725 20.5708 89.1375 20.5708C91.1026 20.5708 93.0127 19.9295 94.5718 18.7464C96.1309 17.5634 97.2519 15.9046 97.7608 14.0272C97.9491 14.7698 98.0443 15.5325 98.0443 16.298Z" fill="#CEC1BC"/>
<path d="M89.6546 25.6476C94.5854 25.6476 98.5826 21.6939 98.5826 16.8167C98.5826 11.9396 94.5854 7.98584 89.6546 7.98584C84.7238 7.98584 80.7266 11.9396 80.7266 16.8167C80.7266 21.6939 84.7238 25.6476 89.6546 25.6476Z" stroke="#732E54" stroke-width="2" stroke-miterlimit="10"/>
<path d="M21.8157 66.0172C26.7465 66.0172 30.7437 62.0635 30.7437 57.1863C30.7437 52.3092 26.7465 48.3555 21.8157 48.3555C16.8849 48.3555 12.8877 52.3092 12.8877 57.1863C12.8877 62.0635 16.8849 66.0172 21.8157 66.0172Z" fill="white"/>
<path fill-rule="evenodd" clip-rule="evenodd" d="M31.0274 57.4806C31.0274 59.8227 30.0867 62.0689 28.4124 63.725C26.7381 65.3811 24.4672 66.3115 22.0993 66.3115C19.7315 66.3115 17.4606 65.3811 15.7863 63.725C14.1119 62.0689 13.1713 59.8227 13.1713 57.4806C13.1632 56.7117 13.2731 55.9461 13.4973 55.2098C14.0011 57.0898 15.1193 58.7523 16.6777 59.9383C18.2361 61.1244 20.1472 61.7675 22.1135 61.7675C24.0798 61.7675 25.991 61.1244 27.5494 59.9383C29.1077 58.7523 30.2259 57.0898 30.7298 55.2098C30.9306 55.9503 31.0307 56.714 31.0274 57.4806Z" fill="#CEC1BC"/>
<path d="M22.638 66.8162C27.5688 66.8162 31.566 62.8624 31.566 57.9853C31.566 53.1081 27.5688 49.1544 22.638 49.1544C17.7072 49.1544 13.71 53.1081 13.71 57.9853C13.71 62.8624 17.7072 66.8162 22.638 66.8162Z" stroke="#732E54" stroke-width="2" stroke-miterlimit="10"/>
<path opacity="0.3" d="M82.2432 89.6643H83.6178" stroke="white" stroke-miterlimit="10" stroke-linecap="round"/>
<path d="M76.1494 81.1838V89.6643H79.253" stroke="white" stroke-miterlimit="10" stroke-linecap="round"/>
<path opacity="0.6" d="M76.1494 75.0164V76.6424" stroke="white" stroke-miterlimit="10" stroke-linecap="round"/>
<path d="M76.1494 66.1154V70.6149" stroke="white" stroke-miterlimit="10" stroke-linecap="round"/>
</g>
</g>
<defs>
<linearGradient id="paint0_linear" x1="72.2949" y1="53.682" x2="88.7197" y2="53.682" gradientUnits="userSpaceOnUse">
<stop offset="0.04" stop-color="#F27B40"/>
<stop offset="1" stop-color="#EC697D"/>
</linearGradient>
<linearGradient id="paint1_linear" x1="602.7" y1="2446.48" x2="792.406" y2="2446.48" gradientUnits="userSpaceOnUse">
<stop offset="0.04" stop-color="#F27B40"/>
<stop offset="1" stop-color="#EC697D"/>
</linearGradient>
<linearGradient id="paint2_linear" x1="280.588" y1="1920.97" x2="472.596" y2="1920.97" gradientUnits="userSpaceOnUse">
<stop offset="0.04" stop-color="#F27B40"/>
<stop offset="1" stop-color="#EC697D"/>
</linearGradient>
<clipPath id="clip0">
<rect width="100" height="100" fill="white"/>
</clipPath>
<clipPath id="clip1">
<rect x="-1" y="5" width="101" height="91" fill="white"/>
</clipPath>
</defs>
</svg>
