<svg width="100" height="100" viewBox="0 0 100 100" fill="none" xmlns="http://www.w3.org/2000/svg">
<path opacity="0.8" d="M91.5617 35.4361L64.4217 52.9907C63.6273 53.5064 62.6603 53.6858 61.7334 53.4896C60.8065 53.2933 59.9956 52.7374 59.4792 51.9441C58.9628 51.1509 58.783 50.1852 58.9796 49.2596C59.1761 48.3341 59.7328 47.5243 60.5272 47.0086L87.6672 29.4541C88.4616 28.9384 89.4286 28.7589 90.3555 28.9552C91.2824 29.1514 92.0933 29.7073 92.6097 30.5006C93.1261 31.2939 93.3059 32.2595 93.1093 33.1851C92.9128 34.1107 92.3561 34.9204 91.5617 35.4361Z" fill="#389BF3"/>
<path opacity="0.8" d="M55.294 58.9862L37.1466 70.7612C36.3504 71.2769 35.3817 71.4557 34.4535 71.2582C33.5254 71.0606 32.7138 70.503 32.1973 69.7079C31.6809 68.9129 31.5019 67.9455 31.6997 67.0187C31.8975 66.0918 32.4559 65.2814 33.2521 64.7657L51.386 53.0041C51.7793 52.7488 52.2192 52.5733 52.6805 52.4877C53.1417 52.4021 53.6153 52.408 54.0743 52.5052C54.5333 52.6024 54.9686 52.7889 55.3553 53.054C55.7421 53.3192 56.0728 53.6579 56.3285 54.0506C56.5842 54.4434 56.76 54.8827 56.8457 55.3433C56.9314 55.8039 56.9255 56.2768 56.8281 56.7352C56.7308 57.1935 56.5441 57.6281 56.2785 58.0144C56.013 58.4006 55.6739 58.7308 55.2805 58.9862H55.294Z" fill="#FF9D23"/>
<path d="M78.8234 31.304L51.6834 48.8586C51.2901 49.1139 50.8502 49.2894 50.389 49.375C49.9277 49.4606 49.4541 49.4547 48.9951 49.3575C48.5362 49.2603 48.1009 49.0738 47.7141 48.8087C47.3273 48.5435 46.9966 48.2048 46.7409 47.8121C46.4852 47.4193 46.3094 46.98 46.2237 46.5194C46.138 46.0588 46.144 45.5859 46.2413 45.1276C46.3386 44.6692 46.5254 44.2346 46.7909 43.8483C47.0564 43.4621 47.3956 43.1319 47.7889 42.8765L74.9289 25.322C75.7239 24.866 76.6638 24.7316 77.5551 24.9466C78.4463 25.1616 79.2211 25.7095 79.7201 26.4776C80.2191 27.2458 80.4042 28.1757 80.2374 29.076C80.0706 29.9763 79.5645 30.7785 78.8234 31.3175V31.304Z" fill="#AA7DFF"/>
<path d="M42.5554 54.8407L24.408 66.6292C24.0145 66.9155 23.5666 67.1186 23.0918 67.2263C22.617 67.3339 22.1252 67.3438 21.6464 67.2554C21.1676 67.1669 20.7119 66.982 20.3071 66.7118C19.9023 66.4416 19.5569 66.0919 19.2919 65.684C19.027 65.2761 18.848 64.8185 18.766 64.3393C18.684 63.86 18.7007 63.3691 18.815 62.8965C18.9293 62.4239 19.1389 61.9795 19.4309 61.5904C19.723 61.2014 20.0913 60.8758 20.5135 60.6337L38.6609 48.8586C39.4553 48.3429 40.4223 48.1634 41.3492 48.3597C42.2761 48.556 43.087 49.1119 43.6034 49.9051C44.1199 50.6984 44.2996 51.6641 44.1031 52.5897C43.9065 53.5152 43.3498 54.325 42.5554 54.8407Z" fill="#389BF3"/>
<path d="M87.0044 25.9836L86.8421 26.0916C86.4488 26.347 86.0089 26.5225 85.5477 26.6081C85.0864 26.6937 84.6128 26.6877 84.1538 26.5906C83.6949 26.4934 83.2596 26.3069 82.8728 26.0417C82.486 25.7766 82.1553 25.4379 81.8996 25.0451C81.6439 24.6523 81.4681 24.2131 81.3824 23.7525C81.2967 23.2919 81.3027 22.8189 81.4 22.3606C81.4973 21.9023 81.684 21.4676 81.9496 21.0814C82.2151 20.6952 82.5543 20.365 82.9476 20.1096L83.1099 20.0016C83.9043 19.4859 84.8713 19.3064 85.7982 19.5027C86.7251 19.6989 87.536 20.2548 88.0524 21.0481C88.5688 21.8414 88.7486 22.807 88.552 23.7326C88.3555 24.6582 87.7988 25.4679 87.0044 25.9836Z" fill="#FF9D23"/>
<path opacity="0.5" d="M90.1823 48.7506L63.0423 66.3051C62.2479 66.8208 61.2809 67.0003 60.354 66.804C59.4271 66.6078 58.6163 66.0519 58.0998 65.2586C57.5834 64.4653 57.4036 63.4997 57.6002 62.5741C57.7967 61.6485 58.3534 60.8388 59.1478 60.3231L86.2878 42.7685C86.6811 42.5132 87.121 42.3377 87.5822 42.2521C88.0435 42.1665 88.5171 42.1724 88.9761 42.2696C89.435 42.3668 89.8703 42.5533 90.2571 42.8184C90.6439 43.0836 90.9746 43.4223 91.2303 43.815C91.486 44.2078 91.6618 44.6471 91.7475 45.1077C91.8332 45.5683 91.8272 46.0412 91.7299 46.4996C91.6326 46.9579 91.4459 47.3925 91.1803 47.7788C90.9148 48.165 90.5756 48.4952 90.1823 48.7506Z" fill="#389BF3"/>
<path opacity="0.5" d="M53.9148 72.3006L35.7674 84.0757C34.973 84.5914 34.006 84.7708 33.0791 84.5746C32.1522 84.3783 31.3413 83.8224 30.8249 83.0291C30.3085 82.2359 30.1287 81.2702 30.3253 80.3446C30.5218 79.419 31.0785 78.6093 31.8729 78.0936L50.0338 66.3186C50.4272 66.0632 50.867 65.8877 51.3283 65.8021C51.7896 65.7165 52.2632 65.7225 52.7221 65.8197C53.1811 65.9168 53.6164 66.1033 54.0032 66.3685C54.3899 66.6337 54.7206 66.9723 54.9764 67.3651C55.2321 67.7579 55.4078 68.1971 55.4935 68.6577C55.5793 69.1183 55.5733 69.5913 55.476 70.0496C55.3787 70.5079 55.1919 70.9426 54.9264 71.3288C54.6608 71.715 54.3217 72.0453 53.9284 72.3006H53.9148Z" fill="#AA7DFF"/>
<path opacity="0.5" d="M98.3638 43.4437L98.2015 43.5517C97.8082 43.8071 97.3683 43.9826 96.907 44.0682C96.4458 44.1538 95.9722 44.1478 95.5132 44.0506C94.5863 43.8544 93.7754 43.2985 93.259 42.5052C92.7425 41.7119 92.5628 40.7463 92.7594 39.8207C92.9559 38.8951 93.5126 38.0854 94.307 37.5697L94.4693 37.4616C94.8626 37.2063 95.3025 37.0308 95.7637 36.9452C96.225 36.8596 96.6986 36.8655 97.1576 36.9627C97.6165 37.0599 98.0518 37.2464 98.4386 37.5116C98.8254 37.7767 99.1561 38.1154 99.4118 38.5082C99.6675 38.901 99.8433 39.3402 99.929 39.8008C100.015 40.2614 100.009 40.7344 99.9114 41.1927C99.8141 41.651 99.6273 42.0857 99.3618 42.4719C99.0963 42.8581 98.7571 43.1883 98.3638 43.4437Z" fill="#FF9D23"/>
<path d="M64.8138 5.13428H2.01465V93.4336H64.8138V5.13428Z" fill="white"/>
<path d="M57.0518 86.6953V68.7897" stroke="#732E54" stroke-miterlimit="10"/>
<path opacity="0.5" d="M57.0518 66.224V60.3905" stroke="#732E54" stroke-miterlimit="10"/>
<path opacity="0.2" d="M57.0518 57.8789V53.3958" stroke="#732E54" stroke-miterlimit="10"/>
<path d="M60.0944 5.35034H5.40885C3.16834 5.35034 1.35205 7.16406 1.35205 9.40139V89.5986C1.35205 91.8359 3.16834 93.6496 5.40885 93.6496H60.0944C62.3349 93.6496 64.1512 91.8359 64.1512 89.5986V9.40139C64.1512 7.16406 62.3349 5.35034 60.0944 5.35034Z" stroke="#732E54" stroke-width="2" stroke-miterlimit="10"/>
<path d="M18.7285 18.9618H48.9111" stroke="#732E54" stroke-width="2" stroke-miterlimit="10" stroke-linecap="round"/>
<path d="M18.7285 26.4968H28.6271" stroke="#732E54" stroke-width="2" stroke-miterlimit="10" stroke-linecap="round"/>
<path d="M18.7285 41.5802H28.6271" stroke="#732E54" stroke-width="2" stroke-miterlimit="10" stroke-linecap="round"/>
<path d="M18.7285 34.0317H46.2065" stroke="#732E54" stroke-width="2" stroke-miterlimit="10" stroke-linecap="round"/>
<path d="M18.3638 83.4275H46.8019" stroke="#732E54" stroke-width="2" stroke-miterlimit="10" stroke-linecap="round"/>
<path d="M69.5332 15.6129C70.0247 15.9024 70.454 16.2861 70.7965 16.742C71.1389 17.1978 71.3877 17.7168 71.5284 18.269C71.6692 18.8212 71.6992 19.3958 71.6167 19.9597C71.5342 20.5235 71.3408 21.0655 71.0477 21.5545L39.3912 74.5556L31.21 80.6862L31.9267 70.167L63.5561 17.1118C63.8484 16.6198 64.2354 16.1905 64.6947 15.8485C65.1539 15.5066 65.6764 15.2588 66.2321 15.1194C66.7877 14.9801 67.3654 14.952 67.932 15.0367C68.4986 15.1214 69.0427 15.3172 69.5332 15.6129Z" fill="url(#paint0_linear)"/>
<path d="M39.851 73.0838L31.751 79.1468L32.4677 68.5736L39.851 73.0838Z" fill="white"/>
<path d="M69.3709 15.505C70.3595 16.097 71.0727 17.0564 71.3541 18.1727C71.6354 19.289 71.462 20.4712 70.8719 21.46L39.9185 73.2864L30.8989 80.4973L32.454 68.8168L63.4074 17.0039C64.0002 16.0167 64.9609 15.3045 66.0789 15.0235C67.1968 14.7425 68.3806 14.9157 69.3709 15.505V15.505Z" stroke="#732E54" stroke-width="2" stroke-miterlimit="10"/>
<defs>
<linearGradient id="paint0_linear" x1="53.9144" y1="50.2479" x2="46.452" y2="45.7914" gradientUnits="userSpaceOnUse">
<stop offset="0.04" stop-color="#F27B40"/>
<stop offset="1" stop-color="#EC697D"/>
</linearGradient>
</defs>
</svg>
